<svg width="16" height="16" viewBox="0 0 16 16" fill="none" xmlns="http://www.w3.org/2000/svg">
<path fill-rule="evenodd" clip-rule="evenodd" d="M3.99984 14.9988C3.99984 15.5501 4.44851 15.9988 4.99984 15.9988V15.9994H10.9998C11.5512 15.9994 11.9998 15.5508 11.9998 14.9994V7.99942H14.0078C14.2738 7.99942 14.5238 7.89608 14.7125 7.70875C14.9025 7.52075 15.0072 7.27008 15.0078 7.00275C15.0085 6.72875 14.8952 6.46342 14.6972 6.27542L8.69117 0.531418C8.50384 0.352085 8.25784 0.253418 7.99984 0.253418C7.74184 0.253418 7.49584 0.351418 7.30851 0.530751L1.30384 6.27409C1.10984 6.45809 0.999842 6.70675 0.992509 6.97342C0.985842 7.24008 1.08318 7.49408 1.26718 7.68742C1.45251 7.88208 1.70918 7.99275 1.99451 7.99875H3.99984V14.9988Z" fill="#27AE60"/>
</svg>