<svg width="16" height="16" viewBox="0 0 16 16" fill="none" xmlns="http://www.w3.org/2000/svg">
<path fill-rule="evenodd" clip-rule="evenodd" d="M3.99984 1.00125C3.99984 0.449915 4.44851 0.00124836 4.99984 0.00124836V0.000580788H10.9998C11.5512 0.000580788 11.9998 0.449247 11.9998 1.00058V8.00058H14.0078C14.2738 8.00058 14.5238 8.10392 14.7125 8.29125C14.9025 8.47925 15.0072 8.72992 15.0078 8.99725C15.0085 9.27125 14.8952 9.53658 14.6972 9.72458L8.69117 15.4686C8.50384 15.6479 8.25784 15.7466 7.99984 15.7466C7.74184 15.7466 7.49584 15.6486 7.30851 15.4692L1.30384 9.72591C1.10984 9.54191 0.999842 9.29325 0.992509 9.02658C0.985842 8.75992 1.08318 8.50592 1.26718 8.31258C1.45251 8.11792 1.70918 8.00725 1.99451 8.00125H3.99984V1.00125Z" fill="#EB5757"/>
</svg>