<svg width="65" height="40" viewBox="0 0 65 40" fill="none" xmlns="http://www.w3.org/2000/svg">
<g clip-path="url(#clip0)">
<path d="M40.6911 18.7528C40.6911 21.4836 37.0251 23.6974 32.5028 23.6974C27.9805 23.6974 24.3145 21.4836 24.3145 18.7528C24.3145 16.022 27.9805 13.8082 32.5028 13.8082C37.0251 13.8082 40.6911 16.022 40.6911 18.7528Z" fill="#2F80ED"/>
<path d="M62.268 1.99419C60.7713 1.09101 58.7821 0.59375 56.6671 0.59375H8.33802C6.223 0.59375 4.23381 1.09101 2.73616 1.99478C1.24048 2.89885 0.416992 4.09973 0.416992 5.37689V10.241C0.416992 11.5182 1.24048 12.7191 2.73714 13.6237C4.2343 14.5269 6.223 15.0239 8.33802 15.0239H8.73948V6.67357C8.73948 6.04681 9.58108 5.53831 10.6195 5.53831H54.3861C55.424 5.53831 56.2661 6.04681 56.2661 6.67357V15.0239H56.6671C58.7821 15.0239 60.7708 14.5266 62.2689 13.6229C63.7646 12.7191 64.5881 11.5179 64.5881 10.241V5.37689C64.5881 4.09973 63.7646 2.89885 62.268 1.99419Z" fill="#2F80ED"/>
<path d="M12.499 35.7766C12.499 36.73 13.1139 37.6258 14.2287 38.2981C15.344 38.9724 16.8275 39.3438 18.4064 39.3438H46.5987C48.1777 39.3438 49.6611 38.9724 50.7744 38.2993C51.8907 37.6258 52.5056 36.73 52.5056 35.7766V7.80884H12.499V35.7766ZM32.5026 11.5377C39.0909 11.5377 44.4509 14.7744 44.4509 18.7528C44.4509 22.7312 39.0909 25.9679 32.5026 25.9679C25.9142 25.9679 20.5542 22.7312 20.5542 18.7528C20.5542 14.7744 25.9142 11.5377 32.5026 11.5377ZM22.4342 30.9934H42.5709C43.6093 30.9934 44.4509 31.5016 44.4509 32.1287C44.4509 32.7555 43.6093 33.264 42.5709 33.264H22.4342C21.3958 33.264 20.5542 32.7555 20.5542 32.1287C20.5542 31.5016 21.3958 30.9934 22.4342 30.9934Z" fill="#2F80ED"/>
</g>
<defs>
<clipPath id="clip0">
<rect width="64.1711" height="38.75" fill="white" transform="translate(0.416992 0.59375)"/>
</clipPath>
</defs>
</svg>
