<svg width="40" height="40" viewBox="0 0 40 40" fill="none" xmlns="http://www.w3.org/2000/svg">
<g clip-path="url(#clip0)">
<path d="M35.4404 33.8933H4.54516C3.69156 33.8933 3 34.5849 3 35.4392C3 36.2921 3.69156 36.9836 4.54516 36.9836H35.4397C36.2933 36.9836 36.9848 36.2921 36.9848 35.4392C36.9841 34.5849 36.2925 33.8933 35.4404 33.8933Z" fill="#219653"/>
<path d="M6.47582 29.8764C5.62222 29.8764 4.93066 30.568 4.93066 31.4216C4.93066 32.2752 5.62222 32.9675 6.47582 32.9675H33.5089C34.3625 32.9675 35.054 32.2752 35.054 31.4216C35.054 30.568 34.3625 29.8764 33.5089 29.8764H33.1233V15.9729H33.5089C33.9364 15.9729 34.2807 15.6271 34.2807 15.2011C34.2807 14.775 33.9349 14.4292 33.5089 14.4292H6.47582C6.04902 14.4292 5.70397 14.775 5.70397 15.2011C5.70397 15.6271 6.04975 15.9729 6.47582 15.9729H6.86211V29.8757H6.47582V29.8764ZM30.033 15.9729V29.8757H25.399V15.9729H30.033ZM22.3086 15.9729V29.8757H17.6746V15.9729H22.3086ZM9.95098 15.9729H14.585V29.8757H9.95098V15.9729Z" fill="#219653"/>
<path d="M4.54519 13.0403H35.4397C35.4447 13.0403 35.4505 13.0403 35.4549 13.0403C36.3092 13.0403 37 12.3487 37 11.4951C37 10.8166 36.5631 10.2415 35.9562 10.0331L20.6276 3.13564C20.2246 2.95479 19.7638 2.95479 19.3602 3.13564L3.9115 10.0867C3.2467 10.3862 2.88139 11.1081 3.03475 11.8199C3.18739 12.5317 3.81674 13.0403 4.54519 13.0403Z" fill="#219653"/>
</g>
<defs>
<clipPath id="clip0">
<rect width="34" height="34" fill="white" transform="translate(3 3)"/>
</clipPath>
</defs>
</svg>
