<svg width="48" height="48" viewBox="0 0 48 48" fill="none" xmlns="http://www.w3.org/2000/svg">
<rect width="48" height="48" rx="24" fill="#3C5A96"/>
<path d="M21.3776 16.648C21.3776 17.2528 21.3776 19.9524 21.3776 19.9524H19V23.9929H21.3776V36H26.2617V23.9932H29.5391C29.5391 23.9932 29.8461 22.0558 29.9948 19.9375C29.5683 19.9375 26.2801 19.9375 26.2801 19.9375C26.2801 19.9375 26.2801 17.5868 26.2801 17.1748C26.2801 16.7619 26.8127 16.2064 27.339 16.2064C27.8643 16.2064 28.9731 16.2064 30 16.2064C30 15.6563 30 13.7555 30 12C28.6291 12 27.0694 12 26.3819 12C21.2569 11.9997 21.3776 16.0443 21.3776 16.648Z" fill="white"/>
</svg>