<svg width="48" height="48" viewBox="0 0 48 48" fill="none" xmlns="http://www.w3.org/2000/svg">
<rect width="48" height="48" rx="24" fill="#27AE60"/>
<path d="M7.83594 26.8516C7.92969 28.9141 9.65625 30.1875 12.2656 30.1875C14.9766 30.1875 16.6719 28.8281 16.6719 26.6719C16.6719 25 15.6797 24.0469 13.3047 23.5547L12.0859 23.3047C10.6797 23.0078 10.1172 22.5156 10.1172 21.75C10.1172 20.8047 11.0078 20.2109 12.2578 20.2109C13.5469 20.2109 14.4375 20.8516 14.5312 21.9141H16.4609C16.4141 19.8984 14.7656 18.5391 12.2734 18.5391C9.82812 18.5391 8.08594 19.8828 8.08594 21.8672C8.08594 23.5156 9.14062 24.5781 11.3984 25.0391L12.6094 25.2891C14.0781 25.5938 14.6406 26.0938 14.6406 26.9062C14.6406 27.8438 13.6953 28.5156 12.3359 28.5156C10.9297 28.5156 9.91406 27.8906 9.76562 26.8516H7.83594ZM29.8125 30V18.7266H27.4844L24.0312 27.3281H23.9688L20.5156 18.7266H18.1797V30H20V22H20.0547L23.3125 30H24.6875L27.9453 22H28V30H29.8125ZM31.3359 26.8516C31.4297 28.9141 33.1562 30.1875 35.7656 30.1875C38.4766 30.1875 40.1719 28.8281 40.1719 26.6719C40.1719 25 39.1797 24.0469 36.8047 23.5547L35.5859 23.3047C34.1797 23.0078 33.6172 22.5156 33.6172 21.75C33.6172 20.8047 34.5078 20.2109 35.7578 20.2109C37.0469 20.2109 37.9375 20.8516 38.0312 21.9141H39.9609C39.9141 19.8984 38.2656 18.5391 35.7734 18.5391C33.3281 18.5391 31.5859 19.8828 31.5859 21.8672C31.5859 23.5156 32.6406 24.5781 34.8984 25.0391L36.1094 25.2891C37.5781 25.5938 38.1406 26.0938 38.1406 26.9062C38.1406 27.8438 37.1953 28.5156 35.8359 28.5156C34.4297 28.5156 33.4141 27.8906 33.2656 26.8516H31.3359Z" fill="white"/>
</svg>