<svg width="48" height="48" viewBox="0 0 48 48" fill="none" xmlns="http://www.w3.org/2000/svg">
<rect width="48" height="48" rx="24" fill="#DD4B39"/>
<g clip-path="url(#clip0)">
<path d="M19.2273 26.1123H24.2268C23.3492 28.5934 20.9724 30.3723 18.1899 30.3518C14.8136 30.3268 12.0218 27.6259 11.8908 24.2521C11.7503 20.6356 14.6517 17.6486 18.2376 17.6486C19.8771 17.6486 21.3733 18.2733 22.5013 19.297C22.7685 19.5395 23.1752 19.541 23.438 19.2937L25.2743 17.5654C25.5614 17.2951 25.5625 16.8386 25.2761 16.5674C23.4873 14.8726 21.0876 13.8163 18.4413 13.7646C12.7971 13.6544 8.03957 18.2821 8.00025 23.9273C7.96059 29.6148 12.5592 34.2378 18.2376 34.2378C23.6983 34.2378 28.1593 29.9621 28.4581 24.5761C28.466 24.5085 28.4713 22.2264 28.4713 22.2264H19.2273C18.8484 22.2264 18.5412 22.5335 18.5412 22.9124V25.4263C18.5412 25.8052 18.8484 26.1123 19.2273 26.1123Z" fill="white"/>
<path d="M36.9422 22.4548V19.9986C36.9422 19.6666 36.6731 19.3975 36.3411 19.3975H34.2738C33.9417 19.3975 33.6726 19.6666 33.6726 19.9986V22.4548H31.2164C30.8844 22.4548 30.6152 22.724 30.6152 23.056V25.1233C30.6152 25.4554 30.8844 25.7245 31.2164 25.7245H33.6726V28.1807C33.6726 28.5127 33.9417 28.7819 34.2738 28.7819H36.3411C36.6731 28.7819 36.9422 28.5127 36.9422 28.1807V25.7245H39.3984C39.7305 25.7245 39.9996 25.4554 39.9996 25.1233V23.056C39.9996 22.724 39.7305 22.4548 39.3984 22.4548H36.9422Z" fill="white"/>
</g>
<defs>
<clipPath id="clip0">
<rect width="32" height="32" fill="white" transform="translate(8 8)"/>
</clipPath>
</defs>
</svg>