<svg width="48" height="48" viewBox="0 0 48 48" style="enable-background:new 0 0 48 48;" xmlns="http://www.w3.org/2000/svg">
<style type="text/css">
	.st0{fill:#666666;}
	.st1{fill:#FFFFFF;}
</style>
<circle id="ellipse" class="st0" cx="24" cy="24" r="24"/>
<path id="logo" class="st1" d="M25.8,7.8c1.2-1.4,3.3-2.5,5-2.6c0.2,2-0.6,4-1.7,5.4c-1.2,1.4-3.1,2.5-5,2.4
	C23.7,11.1,24.7,9.1,25.8,7.8z M35.4,34.8c-1.4,2.1-2.9,4.1-5.1,4.1c-2.3,0-3-1.3-5.5-1.3s-3.4,1.3-5.5,1.4
	c-2.2,0.1-3.9-2.2-5.3-4.3c-2.9-4.2-5.1-11.8-2.1-17c1.5-2.6,4.1-4.2,7-4.2c2.2,0,4.2,1.5,5.6,1.5s3.8-1.8,6.4-1.5
	c1.1,0,4.2,0.4,6.1,3.3c-0.2,0.1-3.7,2.1-3.6,6.4c0,5.1,4.5,6.8,4.5,6.8C37.7,30.1,37,32.4,35.4,34.8z"/>
</svg>
