<svg width="24" height="20" viewBox="0 0 24 20" fill="none" xmlns="http://www.w3.org/2000/svg">
<path d="M6.00018 3.75L8.04618 0.75H12.9542L15.0002 3.75H21.0002C21.6224 3.81397 22.1982 4.10827 22.6145 4.5751C23.0308 5.04193 23.2576 5.64755 23.2502 6.273V16.5C23.2502 17.0967 23.0131 17.669 22.5912 18.091C22.1692 18.5129 21.5969 18.75 21.0002 18.75H3.00018C2.40344 18.75 1.83114 18.5129 1.40919 18.091C0.987228 17.669 0.750175 17.0967 0.750175 16.5V6.273C0.742779 5.64755 0.969505 5.04193 1.38582 4.5751C1.80214 4.10827 2.37796 3.81397 3.00018 3.75H6.00018Z" fill="#BDBDBD"/>
<path d="M11.25 15.75C13.7353 15.75 15.75 13.7353 15.75 11.25C15.75 8.76472 13.7353 6.75 11.25 6.75C8.76472 6.75 6.75 8.76472 6.75 11.25C6.75 13.7353 8.76472 15.75 11.25 15.75Z" fill="#F2F2F2"/>
<path d="M19.875 6.75C19.9492 6.75 20.0217 6.77199 20.0833 6.8132C20.145 6.8544 20.1931 6.91297 20.2215 6.98149C20.2498 7.05002 20.2573 7.12542 20.2428 7.19816C20.2283 7.2709 20.1926 7.33772 20.1402 7.39017C20.0877 7.44261 20.0209 7.47833 19.9482 7.49279C19.8754 7.50726 19.8 7.49984 19.7315 7.47145C19.663 7.44307 19.6044 7.39501 19.5632 7.33334C19.522 7.27167 19.5 7.19917 19.5 7.125C19.5 7.02554 19.5395 6.93016 19.6098 6.85983C19.6802 6.78951 19.7755 6.75 19.875 6.75Z" fill="#F2F2F2" stroke="#F2F2F2" stroke-linecap="round" stroke-linejoin="round"/>
</svg>
