<svg width="12" height="11" viewBox="0 0 12 11" fill="none" xmlns="http://www.w3.org/2000/svg">
<path d="M4.896 6.808C4.896 6.52 4.968 6.252 5.112 6.004C5.256 5.748 5.448 5.548 5.688 5.404C5.936 5.26 6.204 5.188 6.492 5.188C6.78 5.188 7.048 5.264 7.296 5.416C7.544 5.56 7.74 5.756 7.884 6.004C8.036 6.252 8.112 6.52 8.112 6.808C8.112 7.096 8.04 7.364 7.896 7.612C7.752 7.852 7.552 8.044 7.296 8.188C7.048 8.332 6.78 8.404 6.492 8.404C6.204 8.404 5.936 8.332 5.688 8.188C5.448 8.044 5.256 7.852 5.112 7.612C4.968 7.364 4.896 7.096 4.896 6.808ZM6.492 9.292C6.948 9.292 7.368 9.184 7.752 8.968C8.136 8.744 8.44 8.44 8.664 8.056C8.888 7.672 9 7.256 9 6.808C9 6.352 8.888 5.932 8.664 5.548C8.44 5.164 8.136 4.86 7.752 4.636C7.368 4.412 6.948 4.3 6.492 4.3C6.044 4.3 5.628 4.412 5.244 4.636C4.86 4.86 4.556 5.164 4.332 5.548C4.116 5.932 4.008 6.352 4.008 6.808C4.008 7.264 4.116 7.684 4.332 8.068C4.556 8.444 4.856 8.744 5.232 8.968C5.616 9.184 6.036 9.292 6.492 9.292ZM3 4.792V3.292H4.5V1.792H7.992L8.904 2.8H10.5C10.772 2.8 11.008 2.9 11.208 3.1C11.408 3.3 11.508 3.536 11.508 3.808V9.808C11.508 10.08 11.408 10.312 11.208 10.504C11.008 10.696 10.772 10.792 10.5 10.792H2.508C2.236 10.792 2 10.696 1.8 10.504C1.6 10.312 1.5 10.08 1.5 9.808V4.792H3ZM1.5 1.792V0.292H2.508V1.792H4.008V2.8H2.508V4.3H1.5V2.8H0V1.792H1.5Z" fill="white"/>
</svg>