<svg width="24" height="24" viewBox="0 0 24 24" fill="none" xmlns="http://www.w3.org/2000/svg">
<path d="M9.30636 19.0771C9.19387 19.0518 9.0765 19.0595 8.96827 19.0992L3.2997 21.1797L4.95414 17.7081C5.07487 17.4548 5.00387 17.1516 4.78319 16.9782C2.79633 15.4171 1.6 13.2916 1.6 11C1.6 6.46217 6.22416 2.6 12.25 2.6C18.2758 2.6 22.9 6.46217 22.9 11C22.9 15.5378 18.2758 19.4 12.25 19.4L12.2487 19.4C11.259 19.4021 10.2721 19.2938 9.30636 19.0771Z" stroke="#333333" stroke-width="1.2" stroke-miterlimit="10" stroke-linecap="round" stroke-linejoin="round"/>
<path d="M7.75 11.75C8.16421 11.75 8.5 11.4142 8.5 11C8.5 10.5858 8.16421 10.25 7.75 10.25C7.33579 10.25 7 10.5858 7 11C7 11.4142 7.33579 11.75 7.75 11.75Z" stroke="#333333" stroke-width="1.2" stroke-miterlimit="10"/>
<path d="M12.25 11.75C12.6642 11.75 13 11.4142 13 11C13 10.5858 12.6642 10.25 12.25 10.25C11.8358 10.25 11.5 10.5858 11.5 11C11.5 11.4142 11.8358 11.75 12.25 11.75Z" stroke="#333333" stroke-width="1.2" stroke-miterlimit="10"/>
<path d="M16.75 11.75C17.1642 11.75 17.5 11.4142 17.5 11C17.5 10.5858 17.1642 10.25 16.75 10.25C16.3358 10.25 16 10.5858 16 11C16 11.4142 16.3358 11.75 16.75 11.75Z" stroke="#333333" stroke-width="1.2" stroke-miterlimit="10"/>
</svg>
