<svg width="24" height="24" viewBox="0 0 24 24" fill="none" xmlns="http://www.w3.org/2000/svg">
<path d="M9.33923 18.9306C9.19862 18.8991 9.0519 18.9087 8.91662 18.9584L3.59341 20.9121L5.08958 17.7726C5.2405 17.4559 5.15174 17.0769 4.8759 16.8602C2.91732 15.3213 1.75003 13.2363 1.75003 10.9999C1.75003 6.57453 6.27398 2.74994 12.25 2.74994C18.2261 2.74994 22.75 6.57453 22.75 10.9999C22.75 15.4254 18.2261 19.2499 12.25 19.2499L12.2485 19.2499C11.2699 19.252 10.2941 19.1449 9.33923 18.9306Z" stroke="#E02E24" stroke-width="1.5" stroke-miterlimit="10" stroke-linecap="round" stroke-linejoin="round"/>
<path d="M7.75003 11.7499C8.16424 11.7499 8.50003 11.4142 8.50003 10.9999C8.50003 10.5857 8.16424 10.2499 7.75003 10.2499C7.33582 10.2499 7.00003 10.5857 7.00003 10.9999C7.00003 11.4142 7.33582 11.7499 7.75003 11.7499Z" stroke="#E02E24" stroke-width="1.5" stroke-miterlimit="10"/>
<path d="M12.25 11.7499C12.6642 11.7499 13 11.4142 13 10.9999C13 10.5857 12.6642 10.2499 12.25 10.2499C11.8358 10.2499 11.5 10.5857 11.5 10.9999C11.5 11.4142 11.8358 11.7499 12.25 11.7499Z" stroke="#E02E24" stroke-width="1.5" stroke-miterlimit="10"/>
<path d="M16.75 11.7499C17.1642 11.7499 17.5 11.4142 17.5 10.9999C17.5 10.5857 17.1642 10.2499 16.75 10.2499C16.3358 10.2499 16 10.5857 16 10.9999C16 11.4142 16.3358 11.7499 16.75 11.7499Z" stroke="#E02E24" stroke-width="1.5" stroke-miterlimit="10"/>
</svg>
