<?xml version="1.0" encoding="utf-8"?>
<!-- Generator: Adobe Illustrator 16.0.0, SVG Export Plug-In . SVG Version: 6.00 Build 0)  -->
<!DOCTYPE svg PUBLIC "-//W3C//DTD SVG 1.1//EN" "http://www.w3.org/Graphics/SVG/1.1/DTD/svg11.dtd">
<svg version="1.1" id="Layer_1" xmlns="http://www.w3.org/2000/svg" xmlns:xlink="http://www.w3.org/1999/xlink" x="0px" y="0px"
	 width="800px" height="800px" viewBox="0 81.5 800 800" enable-background="new 0 81.5 800 800" xml:space="preserve">
<path fill="#D9534F" d="M17.201,128v704h320l-91.53-92.12c-43.78-43.939-43.78-115.26,0-159.07l49.68-49.81
	c42.47-42.38,116.351-42.44,158.79,0.06l25.311,25.311L593.201,448V128H17.201z M145.201,512h-64v-64h64V512z M145.201,384h-64v-64
	h64V384z M145.201,256h-64v-64h64V256z M273.201,512h-64v-64h64V512z M529.201,384h-320v-64h320V384z M529.201,256h-320v-64h320V256
	z"/>
<path fill="#398439" d="M777.82,539.78L540.951,776.87L491.32,826.56c-6.369,6.561-17,6.561-23.56,0l-31.69-31.81l-17.97-17.87
	L313.321,672c-6.53-6.5-6.53-17,0-23.56l49.72-49.69c6.47-6.56,16.97-6.56,23.5,0l93.029,93.13L599.701,571.5l105-104.94
	c6.439-6.59,16.939-6.53,23.369,0l49.82,49.66C784.451,522.81,784.451,533.31,777.82,539.78z"/>
</svg>
