<svg width="24" height="24" viewBox="0 0 24 24" fill="none" xmlns="http://www.w3.org/2000/svg">
<path d="M18.2 14.81C17.8147 14.6434 17.4123 14.5194 17 14.44C16.7215 14.3749 16.4475 14.2914 16.18 14.19C16.0207 14.1344 15.8768 14.0419 15.76 13.92C15.6704 13.8143 15.6239 13.6786 15.63 13.54C15.6246 13.4397 15.6457 13.3396 15.6914 13.25C15.737 13.1605 15.8056 13.0846 15.89 13.03C16.1072 12.9008 16.3576 12.8382 16.61 12.85C16.8559 12.841 17.0991 12.9035 17.31 13.03C17.3937 13.0774 17.4664 13.1421 17.5233 13.2196C17.5802 13.2972 17.62 13.386 17.64 13.48C17.659 13.5273 17.6924 13.5672 17.7356 13.5942C17.7787 13.6212 17.8293 13.6337 17.88 13.63H18.67C18.6941 13.6315 18.7181 13.6279 18.7406 13.6193C18.7631 13.6108 18.7835 13.5976 18.8006 13.5806C18.8176 13.5636 18.8308 13.5431 18.8393 13.5206C18.8478 13.4981 18.8515 13.4741 18.85 13.45C18.8314 13.2248 18.7557 13.0079 18.63 12.82C18.4782 12.5885 18.2767 12.3938 18.04 12.25C17.7567 12.0776 17.4395 11.9684 17.11 11.93V11.34C17.1115 11.3134 17.1073 11.2868 17.0978 11.2618C17.0882 11.2369 17.0735 11.2143 17.0547 11.1954C17.0358 11.1766 17.0132 11.1619 16.9883 11.1523C16.9633 11.1428 16.9367 11.1386 16.91 11.14H16.39C16.3387 11.1381 16.2885 11.156 16.25 11.19C16.2296 11.2091 16.2137 11.2324 16.2033 11.2584C16.1929 11.2843 16.1884 11.3122 16.19 11.34V11.92C15.7114 11.957 15.2581 12.1503 14.9 12.47C14.7485 12.6098 14.6282 12.7801 14.5472 12.9697C14.4662 13.1593 14.4263 13.3639 14.43 13.57C14.4174 13.7764 14.4523 13.9829 14.532 14.1736C14.6118 14.3643 14.7343 14.5342 14.89 14.67C15.3177 14.9817 15.8097 15.1936 16.33 15.29C16.7234 15.3967 17.0234 15.4867 17.23 15.56C17.4001 15.6129 17.557 15.7016 17.69 15.82C17.7399 15.8696 17.7789 15.929 17.8048 15.9944C17.8306 16.0598 17.8426 16.1298 17.84 16.2C17.8426 16.3086 17.8162 16.4159 17.7634 16.5108C17.7107 16.6058 17.6336 16.6849 17.54 16.74C17.2753 16.889 16.9732 16.9584 16.67 16.94C16.3875 16.9549 16.1065 16.889 15.86 16.75C15.6768 16.6418 15.5385 16.4715 15.47 16.27C15.4451 16.2237 15.4111 16.1829 15.37 16.15C15.321 16.1359 15.269 16.1359 15.22 16.15H14.47C14.4461 16.1493 14.4223 16.1534 14.4 16.162C14.3777 16.1705 14.3573 16.1835 14.34 16.2C14.3081 16.2318 14.2901 16.275 14.29 16.32C14.3027 16.5775 14.3857 16.8265 14.53 17.04C14.6956 17.2814 14.9191 17.4774 15.18 17.61C15.4912 17.7712 15.831 17.8697 16.18 17.9V18.48C16.1784 18.5079 16.1829 18.5358 16.1933 18.5617C16.2037 18.5877 16.2196 18.611 16.24 18.63C16.2785 18.6641 16.3287 18.682 16.38 18.68H16.9C16.9267 18.6815 16.9533 18.6773 16.9783 18.6678C17.0032 18.6582 17.0258 18.6435 17.0447 18.6247C17.0635 18.6058 17.0782 18.5832 17.0878 18.5583C17.0973 18.5333 17.1015 18.5067 17.1 18.48V17.9C17.6147 17.871 18.1076 17.6822 18.51 17.36C18.6801 17.2153 18.8153 17.034 18.9053 16.8297C18.9954 16.6253 19.038 16.4032 19.03 16.18C19.0412 15.8953 18.9681 15.6135 18.82 15.37C18.6689 15.1298 18.4544 14.936 18.2 14.81Z" fill="#333333"/>
<path d="M16.67 8.24H14.12V5.67C14.12 5.53739 14.0673 5.41021 13.9736 5.31645C13.8798 5.22268 13.7526 5.17 13.62 5.17H13V2.5C13 2.36739 12.9473 2.24021 12.8536 2.14645C12.7598 2.05268 12.6326 2 12.5 2H0.5C0.367392 2 0.240215 2.05268 0.146447 2.14645C0.0526784 2.24021 0 2.36739 0 2.5L0 5.57C0 5.63566 0.0129329 5.70068 0.0380602 5.76134C0.0631876 5.822 0.100017 5.87712 0.146447 5.92355C0.192876 5.96998 0.247995 6.00681 0.308658 6.03194C0.369321 6.05707 0.434339 6.07 0.5 6.07H1.16V8.74C1.16 8.87261 1.21268 8.99979 1.30645 9.09355C1.40021 9.18732 1.52739 9.24 1.66 9.24H2.16V11.32H0.66C0.527392 11.32 0.400215 11.3727 0.306447 11.4664C0.212678 11.5602 0.16 11.6874 0.16 11.82V21C0.16 21.1326 0.212678 21.2598 0.306447 21.3536C0.400215 21.4473 0.527392 21.5 0.66 21.5H12.66C12.7926 21.5 12.9198 21.4473 13.0136 21.3536C13.1073 21.2598 13.16 21.1326 13.16 21V20.49C14.0335 21.0554 15.0272 21.4083 16.0617 21.5204C17.0961 21.6324 18.1424 21.5006 19.1167 21.1354C20.0909 20.7702 20.9661 20.1818 21.672 19.4174C22.3779 18.653 22.8948 17.7338 23.1814 16.7336C23.468 15.7334 23.5163 14.6799 23.3223 13.6576C23.1284 12.6354 22.6976 11.6728 22.0646 10.8471C21.4315 10.0213 20.6138 9.3554 19.677 8.90266C18.7402 8.44991 17.7103 8.22296 16.67 8.24ZM1 3H12V5.07H1V3ZM2.16 6.17H13.16V8.24H2.16V6.17ZM3.16 9.24H13.16C12.315 9.76549 11.5976 10.4726 11.06 11.31H3.16V9.24ZM10.16 17.46H1.16V15.39H10C10.0505 16.1019 10.216 16.801 10.49 17.46H10.16ZM1.16 12.31H10.53C10.2526 12.9684 10.0837 13.6675 10.03 14.38H1.16V12.31ZM12.16 20.53H1.16V18.46H11.05C11.351 18.9333 11.7105 19.3667 12.12 19.75L12.16 20.53ZM16.71 20.53C15.7195 20.531 14.7462 20.2711 13.888 19.7765C13.0299 19.2819 12.3171 18.57 11.8214 17.7124C11.3257 16.8549 11.0646 15.8819 11.0644 14.8914C11.0641 13.9009 11.3247 12.9278 11.82 12.07C11.8398 12.0418 11.8565 12.0117 11.87 11.98C12.3783 11.136 13.0989 10.44 13.9599 9.96108C14.8209 9.48219 15.7924 9.23721 16.7775 9.25052C17.7626 9.26383 18.7271 9.53497 19.5749 10.0369C20.4226 10.5389 21.1241 11.2542 21.6095 12.1116C22.0948 12.969 22.3471 13.9385 22.3412 14.9238C22.3353 15.909 22.0714 16.8754 21.5759 17.727C21.0803 18.5785 20.3703 19.2853 19.5166 19.7771C18.6629 20.2689 17.6952 20.5285 16.71 20.53Z" fill="#333333"/>
</svg>