<svg width="16" height="16" viewBox="0 0 16 16" fill="none" xmlns="http://www.w3.org/2000/svg">
<path fill-rule="evenodd" clip-rule="evenodd" d="M12.968 5H3.03134C2.93749 4.99962 2.84782 5.03883 2.78437 5.10799C2.72091 5.17715 2.68956 5.26986 2.69801 5.36334L3.55601 14.7873C3.61843 15.4742 4.19433 16.0001 4.88401 16H11.1153C11.805 16.0001 12.3809 15.4742 12.4433 14.7873L13.3 5.36334C13.3084 5.27014 13.2772 5.17773 13.214 5.10867C13.1509 5.03951 13.0616 5.00007 12.968 5ZM6.83468 13.6667C6.83468 13.9428 6.61082 14.1667 6.33468 14.1667C6.05853 14.1667 5.83468 13.9428 5.83468 13.6667V7.66667C5.83468 7.39053 6.05853 7.16667 6.33468 7.16667C6.61082 7.16667 6.83468 7.39053 6.83468 7.66667V13.6667ZM9.66801 14.1667C9.94415 14.1667 10.168 13.9428 10.168 13.6667V7.66667C10.168 7.39053 9.94415 7.16667 9.66801 7.16667C9.39187 7.16667 9.16801 7.39053 9.16801 7.66667V13.6667C9.16801 13.9428 9.39187 14.1667 9.66801 14.1667Z" fill="#BDBDBD"/>
<path fill-rule="evenodd" clip-rule="evenodd" d="M11.5 2.66667H14.6666C15.0348 2.66667 15.3333 2.96514 15.3333 3.33333C15.3333 3.70152 15.0348 4 14.6666 4H1.33329C0.965103 4 0.666626 3.70152 0.666626 3.33333C0.666626 2.96514 0.965103 2.66667 1.33329 2.66667H4.49996C4.54416 2.66667 4.58655 2.64911 4.61781 2.61785C4.64907 2.5866 4.66663 2.5442 4.66663 2.5V1.66667C4.66663 0.746192 5.41282 0 6.33329 0H9.66663C10.5871 0 11.3333 0.746192 11.3333 1.66667V2.5C11.3333 2.59205 11.4079 2.66667 11.5 2.66667ZM5.99996 1.66667V2.5C5.99996 2.59205 6.07458 2.66667 6.16663 2.66667H9.83329C9.92534 2.66667 9.99996 2.59205 9.99996 2.5V1.66667C9.99996 1.48257 9.85072 1.33333 9.66663 1.33333H6.33329C6.1492 1.33333 5.99996 1.48257 5.99996 1.66667Z" fill="#BDBDBD"/>
</svg>