<svg width="20" height="20" viewBox="0 0 20 20" fill="none" xmlns="http://www.w3.org/2000/svg">
<path d="M19.8283 8.00644L16.6904 4.86832C16.5805 4.7583 16.4314 4.69666 16.2761 4.69666H13.7241V4.65485C13.7241 3.46664 12.7573 2.5 11.5691 2.5H2.155C0.966644 2.5 0 3.46664 0 4.65485V12.5002C0 13.6884 0.966644 14.6548 2.155 14.6548H2.56927C2.84164 15.9959 4.02969 17.0087 5.44983 17.0087C6.86996 17.0087 8.05817 15.9959 8.33054 14.6548H11.6695C11.9418 15.9959 13.1299 17.0087 14.5502 17.0087C15.9703 17.0087 17.1585 15.9959 17.4307 14.6548H19.4141C19.7377 14.6548 20 14.3925 20 14.0689V8.42072C20 8.26523 19.9384 8.1163 19.8283 8.00644ZM5.44983 15.8368C4.47525 15.8368 3.6824 15.0436 3.6824 14.0689C3.6824 13.0943 4.47525 12.3013 5.44983 12.3013C6.42456 12.3013 7.21741 13.0943 7.21741 14.0689C7.21741 15.0436 6.42456 15.8368 5.44983 15.8368ZM14.5502 15.8368C13.5756 15.8368 12.7826 15.0436 12.7826 14.0689C12.7826 13.0943 13.5756 12.3013 14.5502 12.3013C15.5247 12.3013 16.3177 13.0943 16.3177 14.0689C16.3177 15.0436 15.5249 15.8368 14.5502 15.8368ZM13.7241 7.83478V5.86853H16.0333L17.9996 7.83478H13.7241Z" fill="white"/>
</svg>
