<svg width="17" height="16" viewBox="0 0 17 16" fill="none" xmlns="http://www.w3.org/2000/svg">
<g clip-path="url(#clip0)">
<path d="M16.2816 6.59265L13.7272 4.08215C13.6377 3.99414 13.5164 3.94482 13.3899 3.94482H11.3124V3.91138C11.3124 2.96082 10.5255 2.1875 9.55825 2.1875H1.89487C0.927507 2.1875 0.140625 2.96082 0.140625 3.91138V10.1876C0.140625 11.1382 0.927507 11.9114 1.89487 11.9114H2.2321C2.4537 12.9844 3.42081 13.7944 4.57698 13.7944C5.73302 13.7944 6.70025 12.9844 6.92197 11.9114H9.63998C9.8617 12.9844 10.8288 13.7944 11.985 13.7944C13.1411 13.7944 14.1083 12.9844 14.33 11.9114H15.9444C16.2078 11.9114 16.4213 11.7015 16.4213 11.4426V6.92407C16.4213 6.79968 16.3711 6.68054 16.2816 6.59265ZM13.1923 4.88232L14.7929 6.45532H11.3124V4.88232H13.1923ZM1.09457 10.1876V3.91138C1.09457 3.47778 1.45354 3.125 1.89487 3.125H9.55825C9.99945 3.125 10.3584 3.47778 10.3584 3.91138V9.72009C9.9987 10.0483 9.74133 10.4835 9.63998 10.9739H6.92197C6.70025 9.90112 5.73302 9.09106 4.57698 9.09106C3.42094 9.09106 2.45382 9.90112 2.2321 10.9739H1.89487C1.45354 10.9739 1.09457 10.6212 1.09457 10.1876ZM4.57698 12.8569C3.78364 12.8569 3.13823 12.2224 3.13823 11.4426C3.13823 10.663 3.78364 10.0286 4.57698 10.0286C5.37044 10.0286 6.01585 10.663 6.01585 11.4426C6.01585 12.2224 5.37032 12.8569 4.57698 12.8569ZM11.985 12.8569C11.1915 12.8569 10.5461 12.2224 10.5461 11.4426C10.5461 10.663 11.1915 10.0286 11.985 10.0286C12.7783 10.0286 13.4238 10.663 13.4238 11.4426C13.4238 12.2224 12.7783 12.8569 11.985 12.8569ZM14.33 10.9739C14.1083 9.90112 13.1411 9.09106 11.985 9.09106C11.7515 9.09106 11.5259 9.12476 11.3124 9.1864V7.39282H15.4674V10.974H14.33V10.9739Z" fill="#27AE60"/>
</g>
<defs>
<clipPath id="clip0">
<rect width="16.2807" height="16" fill="white" transform="translate(0.140625)"/>
</clipPath>
</defs>
</svg>
