<svg width="24" height="24" viewBox="0 0 24 24" fill="none" xmlns="http://www.w3.org/2000/svg">
<path d="M21.75 5.94674L15.9467 0.143484C15.8547 0.0516093 15.7302 0 15.6003 0H4.48734C3.17474 0 2.10693 1.0679 2.10693 2.3805V21.6196C2.10693 22.9321 3.17479 24 4.48738 24H19.513C20.8256 24 21.8934 22.9321 21.8934 21.6196V6.2931C21.8934 6.16321 21.8418 6.03861 21.75 5.94674ZM16.0902 1.67245L20.2212 5.80335H17.4911C17.1168 5.80335 16.765 5.65761 16.5004 5.39305C16.2359 5.12854 16.0902 4.77674 16.0902 4.40254V1.67245ZM20.9138 21.6195C20.9138 22.392 20.2854 23.0204 19.513 23.0204H4.48734C3.71488 23.0204 3.08648 22.392 3.08648 21.6195V2.3805C3.08653 1.60804 3.71493 0.979592 4.48734 0.979592H15.1106V4.40244C15.1105 5.0383 15.3581 5.6361 15.8077 6.08568C16.2573 6.5353 16.8551 6.78289 17.491 6.78289H20.9138V21.6195H20.9138Z" fill="#333333"/>
<path d="M12.8951 16.4762H12.6758C12.4054 16.4762 12.186 16.6955 12.186 16.966C12.186 17.2365 12.4054 17.4558 12.6758 17.4558H12.8951C13.1656 17.4558 13.3849 17.2365 13.3849 16.966C13.3849 16.6955 13.1656 16.4762 12.8951 16.4762Z" fill="#333333"/>
<path d="M11.091 16.4762H6.33355C6.06308 16.4762 5.84375 16.6955 5.84375 16.966C5.84375 17.2365 6.06308 17.4558 6.33355 17.4558H11.091C11.3614 17.4558 11.5808 17.2365 11.5808 16.966C11.5808 16.6955 11.3615 16.4762 11.091 16.4762Z" fill="#333333"/>
<path d="M17.6662 14.238H6.33355C6.06308 14.238 5.84375 14.4573 5.84375 14.7278C5.84375 14.9983 6.06308 15.2176 6.33355 15.2176H17.6662C17.9366 15.2176 18.156 14.9983 18.156 14.7278C18.156 14.4573 17.9366 14.238 17.6662 14.238Z" fill="#333333"/>
<path d="M17.6662 12H6.33355C6.06308 12 5.84375 12.2193 5.84375 12.4898C5.84375 12.7603 6.06308 12.9796 6.33355 12.9796H17.6662C17.9366 12.9796 18.156 12.7603 18.156 12.4898C18.156 12.2193 17.9366 12 17.6662 12Z" fill="#333333"/>
<path d="M17.6662 9.76196H6.33355C6.06308 9.76196 5.84375 9.98124 5.84375 10.2518C5.84375 10.5223 6.06308 10.7416 6.33355 10.7416H17.6662C17.9366 10.7416 18.156 10.5223 18.156 10.2518C18.156 9.98124 17.9366 9.76196 17.6662 9.76196Z" fill="#333333"/>
</svg>