<svg width="20" height="20" viewBox="0 0 20 20" fill="none" xmlns="http://www.w3.org/2000/svg">
<g clip-path="url(#clip0)">
<path d="M19.2582 14.2456C18.8774 14.2166 18.0868 14.6471 17.8675 14.7547C17.0934 15.1438 16.0255 15.7523 15.3219 16.2366C15.2722 16.2697 15.206 16.3152 15.1563 16.3442C14.8417 16.547 14.5064 16.6836 14.1339 16.7622C12.0892 17.1968 9.10896 17.2465 9.10896 17.2465L8.93512 17.2548C8.80266 17.2631 8.68677 17.172 8.67021 17.0437C8.64952 16.903 8.75299 16.7746 8.89787 16.7622L13.3309 16.34C13.8193 16.2862 14.2084 15.8309 14.1546 15.3177C14.1008 14.8044 13.6289 14.4277 13.1405 14.4815L9.20003 14.4319C8.93098 14.4277 8.50051 14.3615 8.24388 14.287C5.70242 13.5461 4.27027 14.2415 3.50866 14.5643C3.33895 14.2829 3.0161 14.1007 2.65599 14.1256L0.954787 14.2373C0.38772 14.2746 -0.0386155 14.7465 0.00277625 15.2928L0.275962 19.0678C0.313214 19.6141 0.805776 20.0239 1.3687 19.9867L3.06991 19.8749C3.43001 19.8501 3.71976 19.6307 3.84807 19.3285L11.3151 19.6514C12.1471 19.7383 12.9253 19.639 13.6579 19.254L13.8732 19.1423L19.5149 15.8392C19.7922 15.6778 19.9909 15.3963 19.9991 15.0817C20.0157 14.7051 19.7963 14.2829 19.2582 14.2456ZM1.99372 19.0926C1.675 19.0926 1.41424 18.8442 1.41424 18.5338C1.41424 18.2234 1.675 17.975 1.99372 17.975C2.31244 17.975 2.5732 18.2234 2.5732 18.5338C2.5732 18.8442 2.31244 19.0926 1.99372 19.0926Z" fill="#219653"/>
<path d="M15.2391 15.4211C15.8144 15.0196 16.9941 14.378 17.6605 14.0428C17.8633 13.9434 18.0744 13.8399 18.3021 13.7613C18.0123 13.5668 17.7019 13.5585 17.379 13.6827C16.7457 13.9351 15.5785 14.4981 14.9825 14.8209C14.9783 14.8292 14.9742 14.8375 14.9742 14.8458C15.0156 14.9699 15.0487 15.0983 15.0611 15.2307C15.0735 15.3383 15.0694 15.4418 15.0652 15.5453C15.1191 15.5039 15.177 15.4625 15.2391 15.4211Z" fill="#219653"/>
<path d="M16.7623 13.3061C16.4725 13.1198 16.1662 13.1115 15.8517 13.2357C15.4584 13.3888 14.5851 13.6745 14.196 13.8814C14.3616 13.9849 14.5106 14.1132 14.6389 14.2622C14.6637 14.2457 14.6885 14.225 14.7175 14.2084L15.0031 14.0511C15.417 13.8235 16.307 13.5089 16.7623 13.3061Z" fill="#219653"/>
<path d="M16.1952 5.96312C17.3004 5.49125 18.0786 4.39023 18.0786 3.11123C18.0786 1.39761 16.6878 0.0109863 14.9783 0.0109863C13.2688 0.0109863 11.8781 1.40175 11.8781 3.11123C11.8781 3.12779 11.8822 3.14434 11.8822 3.1609C13.7242 3.35544 15.3053 4.43576 16.1952 5.96312Z" fill="#219653"/>
<path d="M11.2903 13.3102C13.778 13.3102 15.7937 11.2944 15.7937 8.80677C15.7937 6.31912 13.778 4.30334 11.2903 4.30334C8.80267 4.30334 6.7869 6.31912 6.7869 8.80677C6.7869 11.2944 8.80267 13.3102 11.2903 13.3102ZM9.71743 10.5866C9.75882 10.4376 9.80022 10.2886 9.84575 10.1437C9.89956 9.97401 9.94509 9.95332 10.1024 10.032C10.3714 10.1727 10.6529 10.2472 10.9509 10.2845C11.1413 10.3093 11.3317 10.2886 11.5056 10.2099C11.8367 10.0651 11.8905 9.68013 11.609 9.45248C11.5138 9.37383 11.4062 9.31589 11.2945 9.26622C11.0047 9.1379 10.7026 9.0427 10.4252 8.87713C9.98234 8.61223 9.69674 8.24384 9.72985 7.70575C9.7671 7.09315 10.1148 6.71234 10.6736 6.50953C10.9054 6.42674 10.9054 6.42674 10.9095 6.18667C10.9095 6.10389 10.9095 6.0211 10.9095 5.94246C10.9137 5.76033 10.9468 5.72722 11.1248 5.72308C11.1827 5.72308 11.2365 5.72308 11.2945 5.72308C11.6794 5.72308 11.6794 5.72308 11.6835 6.10802C11.6835 6.38121 11.6835 6.38121 11.9567 6.42674C12.1637 6.45986 12.3665 6.52194 12.5569 6.60473C12.6645 6.65026 12.7018 6.72476 12.6728 6.83652C12.6231 7.00209 12.5776 7.17179 12.5238 7.33736C12.4741 7.49465 12.4245 7.51534 12.2713 7.44498C11.9691 7.30011 11.6504 7.23802 11.3193 7.25458C11.2324 7.25872 11.1454 7.27113 11.0668 7.30839C10.7771 7.43256 10.7315 7.75128 10.9757 7.94996C11.0999 8.0493 11.2406 8.11966 11.3897 8.18175C11.6463 8.28937 11.9029 8.38871 12.143 8.52116C12.917 8.9475 13.124 9.9202 12.5776 10.5783C12.3789 10.8184 12.1264 10.9798 11.8284 11.0585C11.7001 11.0957 11.638 11.162 11.6463 11.2986C11.6504 11.431 11.6463 11.5635 11.6463 11.6959C11.6463 11.8159 11.5842 11.878 11.4683 11.8822C11.3234 11.8863 11.1827 11.8863 11.0378 11.8822C10.9137 11.878 10.8516 11.8077 10.8516 11.6876C10.8516 11.5924 10.8516 11.4931 10.8474 11.3979C10.8433 11.1827 10.8391 11.1744 10.6322 11.1413C10.3673 11.0999 10.1107 11.0378 9.86644 10.9219C9.68018 10.835 9.66362 10.7853 9.71743 10.5866Z" fill="#219653"/>
</g>
<defs>
<clipPath id="clip0">
<rect width="20" height="20" fill="white"/>
</clipPath>
</defs>
</svg>
