<?xml version="1.0" encoding="utf-8"?>
<!-- Generator: Adobe Illustrator 16.0.0, SVG Export Plug-In . SVG Version: 6.00 Build 0)  -->
<!DOCTYPE svg PUBLIC "-//W3C//DTD SVG 1.1//EN" "http://www.w3.org/Graphics/SVG/1.1/DTD/svg11.dtd">
<svg version="1.1" id="Layer_1" xmlns="http://www.w3.org/2000/svg" xmlns:xlink="http://www.w3.org/1999/xlink" x="0px" y="0px"
	 width="16px" height="16px" viewBox="0 0 16 16" enable-background="new 0 0 16 16" xml:space="preserve">
<path fill="#828282" d="M8,3C4.364,3,1.258,5.262,0,8.455c1.258,3.193,4.364,5.455,8,5.455c3.637,0,6.742-2.262,8-5.455
	C14.742,5.262,11.637,3,8,3z M8,12.091c-2.007,0-3.636-1.629-3.636-3.636S5.993,4.818,8,4.818c2.008,0,3.637,1.629,3.637,3.636
	S10.008,12.091,8,12.091z M8,6.272c-1.208,0-2.182,0.975-2.182,2.182S6.792,10.637,8,10.637c1.207,0,2.182-0.975,2.182-2.182
	S9.207,6.272,8,6.272z"/>
<line fill="none" stroke="#828282" stroke-width="1.7608" stroke-linecap="round" stroke-miterlimit="10" x1="12.701" y1="1.777" x2="2.938" y2="14.938"/>
</svg>
