<svg width="16" height="16" viewBox="0 0 16 16" fill="none" xmlns="http://www.w3.org/2000/svg">
<path fill-rule="evenodd" clip-rule="evenodd" d="M8 3C4.36364 3 1.25818 5.26182 0 8.45455C1.25818 11.6473 4.36364 13.9091 8 13.9091C11.6364 13.9091 14.7418 11.6473 16 8.45455C14.7418 5.26182 11.6364 3 8 3ZM8 12.0909C5.99273 12.0909 4.36364 10.4618 4.36364 8.45455C4.36364 6.44727 5.99273 4.81818 8 4.81818C10.0073 4.81818 11.6364 6.44727 11.6364 8.45455C11.6364 10.4618 10.0073 12.0909 8 12.0909ZM8 6.27273C6.79273 6.27273 5.81818 7.24727 5.81818 8.45455C5.81818 9.66182 6.79273 10.6364 8 10.6364C9.20727 10.6364 10.1818 9.66182 10.1818 8.45455C10.1818 7.24727 9.20727 6.27273 8 6.27273Z" fill="#828282"/>
</svg>