<svg width="72" height="72" viewBox="0 0 72 72" fill="none" xmlns="http://www.w3.org/2000/svg">
<rect width="72" height="72" rx="4" fill="#E0E0E0"/>
<path d="M48.4122 26.9876C48.0206 26.5959 47.55 26.4001 46.9998 26.4001H27C26.45 26.4001 25.9793 26.5959 25.5874 26.9876C25.1957 27.3793 25 27.85 25 28.4V43.5998C25 44.1499 25.1957 44.6207 25.5874 45.0123C25.9793 45.404 26.45 45.5998 27 45.5998H47.0001C47.55 45.5998 48.0207 45.404 48.4124 45.0123C48.804 44.6207 49 44.15 49 43.5998V28.4C49 27.85 48.804 27.3793 48.4122 26.9876ZM47.3997 43.5998C47.3997 43.7083 47.3603 43.8017 47.2811 43.8812C47.2019 43.96 47.1081 43.9995 46.9998 43.9995H27C26.8917 43.9995 26.7979 43.96 26.7188 43.8812C26.6397 43.8018 26.6 43.7083 26.6 43.5998V28.3998C26.6 28.2915 26.6395 28.1979 26.7188 28.1186C26.798 28.0397 26.8918 28.0001 27 28.0001H47.0001C47.1082 28.0001 47.202 28.0397 47.2811 28.1186C47.36 28.1979 47.3997 28.2915 47.3997 28.3998V43.5998Z" fill="#BDBDBD"/>
<path d="M30.6 34.3999C31.2668 34.3999 31.8334 34.1667 32.3001 33.7C32.7667 33.2333 33.0001 32.6667 33.0001 32.0001C33.0001 31.3333 32.7666 30.7667 32.3001 30.3C31.8334 29.8335 31.2667 29.6001 30.6 29.6001C29.9334 29.6001 29.3668 29.8335 28.9001 30.3C28.4336 30.7667 28.2002 31.3333 28.2002 32.0001C28.2002 32.6667 28.4334 33.2334 28.9001 33.7C29.3668 34.1666 29.9334 34.3999 30.6 34.3999Z" fill="#BDBDBD"/>
<path d="M34.2001 37.9998L32.2001 35.9999L28.2002 39.9998V42.3999H45.8001V36.7999L40.6001 31.5999L34.2001 37.9998Z" fill="#BDBDBD"/>
</svg>
