<svg width="40" height="40" viewBox="0 0 40 40" fill="none" xmlns="http://www.w3.org/2000/svg">
<path d="M21.0567 3.33325C30.2683 3.33325 37.7317 10.7949 37.7317 19.9999C37.7317 29.2049 30.2667 36.6666 21.0567 36.6666C15.1967 36.6666 10.0767 33.6283 7.10667 29.0583L9.73167 26.9699C12.0783 30.7766 16.2617 33.3333 21.065 33.3333C24.6012 33.3333 27.9926 31.9285 30.4931 29.428C32.9936 26.9275 34.3983 23.5361 34.3983 19.9999C34.3983 16.4637 32.9936 13.0723 30.4931 10.5718C27.9926 8.07134 24.6012 6.66659 21.065 6.66659C14.265 6.66659 8.66833 11.7583 7.84833 18.3333H12.4467L6.22167 24.5549L0 18.3333H4.48333C5.31667 9.91159 12.4083 3.33325 21.0567 3.33325ZM25.98 17.0666C26.3842 17.0705 26.7706 17.2338 27.0551 17.5209C27.3397 17.8079 27.4996 18.1957 27.5 18.5999V26.2766C27.5002 26.4783 27.4607 26.6781 27.3836 26.8645C27.3066 27.0509 27.1936 27.2204 27.051 27.3631C26.9084 27.5058 26.7391 27.619 26.5528 27.6962C26.3665 27.7735 26.1667 27.8133 25.965 27.8133H16.75C16.5483 27.8133 16.3485 27.7735 16.1622 27.6962C15.9759 27.619 15.8066 27.5058 15.664 27.3631C15.5214 27.2204 15.4084 27.0509 15.3314 26.8645C15.2543 26.6781 15.2148 26.4783 15.215 26.2766V18.5983C15.2154 18.1945 15.3751 17.8071 15.6594 17.5204C15.9436 17.2336 16.3296 17.0705 16.7333 17.0666V15.3833C16.7347 14.1575 17.2222 12.9823 18.0889 12.1155C18.9557 11.2488 20.1309 10.7612 21.3567 10.7599C22.5824 10.7612 23.7576 11.2488 24.6244 12.1155C25.4912 12.9823 25.9787 14.1575 25.98 15.3833V17.0666ZM21.3567 13.0933C20.0933 13.0933 19.0667 14.1199 19.0667 15.3833V17.0649H23.6467V15.3833C23.6467 14.1199 22.6183 13.0933 21.3567 13.0933Z" fill="#E02E24"/>
</svg>
