<svg width="40" height="40" viewBox="0 0 40 40" fill="none" xmlns="http://www.w3.org/2000/svg">
<path d="M30.8828 18.098H30.2911V13.2934C30.2911 8.17169 26.2267 3.89325 21.1467 3.80195C21.008 3.79942 20.7305 3.79942 20.5918 3.80195C15.5118 3.89318 11.4474 8.17163 11.4474 13.2933V18.4813C11.4474 19.5582 11.7233 19.1 12.8002 19.1C13.8771 19.1 15.347 19.2769 15.347 18.2V13.2933C15.347 10.2424 17.8264 7.71976 20.8692 7.71976C23.912 7.71976 26.3914 10.2424 26.3914 13.2933V18.0979H10.8558C9.94394 18.0979 9.2002 19.0389 9.2002 20.201V34.0896C9.2002 35.2502 9.94394 36.2 10.8558 36.2H30.8828C31.7947 36.2 32.5384 35.2503 32.5384 34.0896V20.2009C32.5385 19.0388 31.7947 18.098 30.8828 18.098ZM22.7455 27.1312V31.3278C22.7455 31.8084 22.3432 32.215 21.8622 32.215H19.8764C19.3954 32.215 18.9931 31.8084 18.9931 31.3278V27.1312C18.5266 26.672 18.2551 26.0371 18.2551 25.3348C18.2551 24.0039 19.2838 22.8603 20.5919 22.8075C20.7305 22.8019 21.0082 22.8019 21.1467 22.8075C22.4548 22.8603 23.4835 24.0039 23.4835 25.3348C23.4835 26.037 23.212 26.6719 22.7455 27.1312Z" fill="#E02E24"/>
</svg>
