<svg width="24" height="24" viewBox="0 0 24 24" fill="none" xmlns="http://www.w3.org/2000/svg">
<path d="M11.5 22.5001C11.424 22.5001 11.347 22.4821 11.279 22.4481C8.644 21.1431 7.006 18.5081 7.001 15.5681C6.201 15.5261 5.361 15.5031 4.499 15.4991H3.5C1.57 15.5001 0 13.9301 0 12.0001V10.0001C0 8.07011 1.57 6.50011 3.5 6.50011H4.5C5.521 6.49511 6.514 6.46311 7.452 6.40511C7.469 6.40211 7.486 6.40011 7.5 6.40011C7.505 6.40011 7.511 6.40011 7.517 6.40111C13.185 6.03911 16.464 4.70311 19.869 3.12411C20.068 3.03111 20.281 2.98511 20.5 2.98511C21.327 2.98511 22 3.65811 22 4.48511V8.50011C23.103 8.50011 24 9.39711 24 10.5001V11.5001C24 12.6031 23.103 13.5001 22 13.5001V17.5161C22 17.7361 21.953 17.9491 21.861 18.1481C21.616 18.6751 21.081 19.0161 20.498 19.0161C20.279 19.0161 20.067 18.9691 19.868 18.8771C16.56 17.3411 13.376 16.0361 8 15.6321C8.028 18.1631 9.449 20.4261 11.721 21.5511C11.841 21.6101 11.93 21.7131 11.973 21.8391C12.016 21.9651 12.007 22.1011 11.947 22.2211C11.863 22.3931 11.691 22.5001 11.5 22.5001ZM8 14.6291C13.583 15.0381 16.873 16.3841 20.29 17.9691C20.357 18.0001 20.427 18.0161 20.5 18.0161C20.558 18.0161 20.616 18.0061 20.673 17.9851C20.798 17.9391 20.898 17.8471 20.954 17.7261C20.984 17.6601 21 17.5891 21 17.5161V4.48411C21 4.20811 20.776 3.98411 20.5 3.98411C20.427 3.98411 20.356 4.00011 20.29 4.03011C16.873 5.61511 13.582 6.96211 8 7.37111V14.6291ZM7 7.43311C6.203 7.47311 5.364 7.49611 4.502 7.50011H3.5C2.121 7.50011 1 8.62111 1 10.0001V12.0001C1 13.3791 2.121 14.5001 3.5 14.5001H4.5C5.361 14.5041 6.201 14.5261 7 14.5671V7.43311ZM22 12.5001C22.552 12.5001 23 12.0521 23 11.5001V10.5001C23 9.94911 22.552 9.50011 22 9.50011V12.5001Z" fill="black"/>
</svg>
