<svg width="24" height="24" viewBox="0 0 24 24" fill="none" xmlns="http://www.w3.org/2000/svg">
<path d="M12 24C18.6274 24 24 18.6274 24 12C24 5.37258 18.6274 0 12 0C5.37258 0 0 5.37258 0 12C0 18.6274 5.37258 24 12 24Z" fill="white"/>
<path d="M11.622 5.25H12.378C12.9757 5.25 13.4399 5.77086 13.3714 6.36462L12.418 14.6275C12.3935 14.8398 12.2137 15 12 15C11.7863 15 11.6065 14.8398 11.582 14.6275L10.6286 6.36462C10.5601 5.77086 11.0243 5.25 11.622 5.25Z" fill="#27AE60"/>
<circle cx="12" cy="17.625" r="1.125" fill="#27AE60"/>
</svg>
