<svg width="24" height="24" viewBox="0 0 24 24" fill="none" xmlns="http://www.w3.org/2000/svg">
<path d="M12 23.934C11.784 23.934 11.571 23.863 11.4 23.735L8.021 21.202L5.651 23.233C5.47 23.388 5.239 23.473 5.001 23.473C4.708 23.473 4.431 23.346 4.241 23.124C4.085 22.942 4 22.711 4 22.473V1.56104C4 0.734035 4.673 0.0610352 5.5 0.0610352H18.5C19.327 0.0610352 20 0.734035 20 1.56104V22.473C20 23.025 19.552 23.473 19 23.473C18.762 23.473 18.531 23.388 18.35 23.233L15.979 21.201L12.6 23.735C12.429 23.863 12.216 23.934 12 23.934ZM8 20.061C8.109 20.061 8.213 20.096 8.3 20.161L12 22.935L15.7 20.161C15.786 20.096 15.89 20.061 16 20.061C16.119 20.061 16.234 20.103 16.325 20.181L19 22.473V1.56104C19 1.28504 18.776 1.06104 18.5 1.06104H5.5C5.224 1.06104 5 1.28504 5 1.56104V22.473L7.675 20.181C7.766 20.104 7.881 20.061 8 20.061Z" fill="black"/>
<path d="M7 6.06104C6.724 6.06104 6.5 5.83704 6.5 5.56104C6.5 5.28504 6.724 5.06104 7 5.06104H11C11.276 5.06104 11.5 5.28504 11.5 5.56104C11.5 5.83704 11.276 6.06104 11 6.06104H7Z" fill="black"/>
<path d="M7 9.06104C6.724 9.06104 6.5 8.83704 6.5 8.56104C6.5 8.28504 6.724 8.06104 7 8.06104H12.5C12.776 8.06104 13 8.28504 13 8.56104C13 8.83704 12.776 9.06104 12.5 9.06104H7Z" fill="black"/>
<path d="M7 12.061C6.724 12.061 6.5 11.837 6.5 11.561C6.5 11.285 6.724 11.061 7 11.061H13C13.276 11.061 13.5 11.285 13.5 11.561C13.5 11.837 13.276 12.061 13 12.061H7Z" fill="black"/>
<path d="M7 15.061C6.724 15.061 6.5 14.837 6.5 14.561C6.5 14.285 6.724 14.061 7 14.061H11.5C11.776 14.061 12 14.285 12 14.561C12 14.837 11.776 15.061 11.5 15.061H7Z" fill="black"/>
<path d="M16.5 6.31104C16.086 6.31104 15.75 5.97504 15.75 5.56104C15.749 5.15004 16.083 4.81304 16.496 4.81104C16.914 4.81104 17.25 5.14704 17.25 5.56104C17.25 5.97504 16.914 6.31104 16.5 6.31104Z" fill="black"/>
<path d="M16.5 9.31104C16.086 9.31104 15.75 8.97504 15.75 8.56104C15.749 8.15004 16.083 7.81304 16.496 7.81104C16.914 7.81104 17.25 8.14704 17.25 8.56104C17.25 8.97504 16.914 9.31104 16.5 9.31104Z" fill="black"/>
<path d="M16.5 12.311C16.086 12.311 15.75 11.975 15.75 11.561C15.749 11.15 16.083 10.813 16.496 10.811C16.914 10.811 17.25 11.147 17.25 11.561C17.25 11.975 16.914 12.311 16.5 12.311Z" fill="black"/>
<path d="M16.5 15.311C16.086 15.311 15.75 14.975 15.75 14.561C15.749 14.363 15.826 14.175 15.967 14.033C16.109 13.891 16.296 13.812 16.496 13.811C16.913 13.811 17.25 14.147 17.25 14.561C17.25 14.975 16.914 15.311 16.5 15.311Z" fill="black"/>
</svg>