<svg width="16" height="16" viewBox="0 0 16 16" fill="none" xmlns="http://www.w3.org/2000/svg">
<path d="M1.7661 10.9334C1.68006 10.8476 1.55416 10.8154 1.43751 10.8494C1.32086 10.8834 1.23194 10.9781 1.20543 11.0967L0.262768 15.34C0.237958 15.4512 0.271648 15.5674 0.352101 15.648C0.433202 15.7277 0.54884 15.7615 0.660101 15.738L4.90277 14.7954C5.02162 14.769 5.11665 14.6799 5.15066 14.5631C5.18467 14.4462 5.15226 14.32 5.0661 14.234L1.7661 10.9334Z" fill="#BDBDBD"/>
<path d="M11.9013 4.80538L4.59468 12.112C4.53013 12.1775 4.53013 12.2826 4.59468 12.348L5.77335 13.5267C5.90455 13.6543 6.11348 13.6543 6.24468 13.5267L13.316 6.45538C13.4461 6.32521 13.4461 6.11421 13.316 5.98404L12.1373 4.80538C12.0719 4.74082 11.9668 4.74082 11.9013 4.80538Z" fill="#BDBDBD"/>
<path d="M11.1948 3.86263L10.0161 2.68463C9.88595 2.5545 9.67495 2.5545 9.54478 2.68463L2.47345 9.7553C2.34332 9.88546 2.34332 10.0965 2.47345 10.2266L3.65212 11.4053C3.71754 11.4699 3.82269 11.4699 3.88812 11.4053L11.1948 4.09863C11.2593 4.03321 11.2593 3.92805 11.1948 3.86263Z" fill="#BDBDBD"/>
<path d="M14.9661 1.03469C13.9238 -0.00537854 12.2363 -0.00537854 11.1941 1.03469L10.7227 1.50602C10.5926 1.63619 10.5926 1.84719 10.7227 1.97736L14.0227 5.27669C14.1547 5.40224 14.362 5.40224 14.4941 5.27669L14.9661 4.80536C16.0071 3.76402 16.0071 2.07602 14.9661 1.03469Z" fill="#BDBDBD"/>
</svg>