<svg width="16" height="16" viewBox="0 0 16 16" fill="none" xmlns="http://www.w3.org/2000/svg">
<path d="M11.2312 11.4686C11.0845 11.4507 10.9523 11.5558 10.9352 11.7022C10.9181 11.8486 11.0227 11.9811 11.1688 11.9982C13.9731 12.3283 15.4667 13.2179 15.4667 13.7334C15.4667 14.4571 12.6261 15.4667 8 15.4667C3.37387 15.4667 0.533333 14.4571 0.533333 13.7334C0.533333 13.2179 2.02693 12.3283 4.8312 11.9982C4.97733 11.9811 5.08187 11.8483 5.0648 11.7022C5.04747 11.5558 4.9152 11.4502 4.7688 11.4686C1.96107 11.7992 0 12.7304 0 13.7334C0 14.8598 2.748 16 8 16C13.252 16 16 14.8598 16 13.7334C16 12.7304 14.0389 11.7992 11.2312 11.4686Z" fill="#219653"/>
<path d="M7.95274 14.6019L12.0437 8.69333C13.5781 6.64773 13.3562 3.28533 11.5687 1.49813C10.6029 0.532 9.31861 0 7.95274 0C6.58688 0 5.30261 0.532 4.33674 1.49787C2.54928 3.28507 2.32741 6.64747 3.85568 8.68507L7.95274 14.6019ZM7.99994 3.2C9.02928 3.2 9.86661 4.0376 9.86661 5.06667C9.86661 6.09573 9.02928 6.93333 7.99994 6.93333C6.97061 6.93333 6.13328 6.09573 6.13328 5.06667C6.13328 4.0376 6.97061 3.2 7.99994 3.2Z" fill="#219653"/>
</svg>
