<svg width="16" height="16" viewBox="0 0 16 16" fill="none" xmlns="http://www.w3.org/2000/svg">
<path d="M7.99667 0C4.46124 0 1.58325 2.87799 1.58325 6.41342C1.58325 6.81593 1.62015 7.2218 1.6973 7.61761C1.70065 7.64109 1.71407 7.71153 1.7409 7.83228C1.83818 8.26499 1.98241 8.69099 2.17025 9.09686C2.86124 10.7237 4.38074 13.2226 7.71491 15.8994C7.79876 15.9665 7.89939 16 8.00002 16C8.10065 16 8.20128 15.9665 8.28514 15.8994C11.616 13.2226 13.1388 10.7237 13.8298 9.09686C14.0176 8.69099 14.1619 8.26834 14.2591 7.83228C14.286 7.71153 14.2994 7.64109 14.3027 7.61761C14.3765 7.2218 14.4168 6.81593 14.4168 6.41342C14.4101 2.87799 11.5321 0 7.99667 0ZM13.4038 7.45996C13.4038 7.46667 13.4004 7.47337 13.4004 7.48008C13.3971 7.49686 13.387 7.54717 13.3703 7.62432C13.3703 7.62767 13.3703 7.62767 13.3703 7.63103C13.2864 8.00671 13.1623 8.37233 12.9979 8.72453C12.9946 8.72788 12.9946 8.73459 12.9912 8.73795C12.364 10.2239 10.9887 12.4914 7.99667 14.9635C5.00464 12.4914 3.62937 10.2239 3.00212 8.73795C2.99877 8.73459 2.99877 8.72788 2.99541 8.72453C2.8344 8.37568 2.7103 8.00671 2.62308 7.63103C2.62308 7.62767 2.62308 7.62767 2.62308 7.62432C2.60296 7.54717 2.59625 7.49686 2.5929 7.48008C2.5929 7.47337 2.58954 7.46667 2.58954 7.4566C2.52246 7.11111 2.48891 6.76226 2.48891 6.41006C2.48891 3.37442 4.96103 0.902306 7.99667 0.902306C11.0323 0.902306 13.5044 3.37442 13.5044 6.41006C13.5044 6.76562 13.4709 7.11782 13.4038 7.45996Z" fill="#828282"/>
<path d="M7.99668 2.41174C5.75265 2.41174 3.92456 4.23984 3.92456 6.48386C3.92456 8.72788 5.75265 10.556 7.99668 10.556C10.2407 10.556 12.0688 8.72788 12.0688 6.48386C12.0688 4.23984 10.2407 2.41174 7.99668 2.41174ZM7.99668 9.65032C6.24909 9.65032 4.83022 8.22809 4.83022 6.48386C4.83022 4.73963 6.25244 3.3174 7.99668 3.3174C9.74092 3.3174 11.1631 4.73963 11.1631 6.48386C11.1631 8.22809 9.74427 9.65032 7.99668 9.65032Z" fill="#828282"/>
</svg>