<svg width="24" height="24" viewBox="0 0 24 24" fill="none" xmlns="http://www.w3.org/2000/svg">
<path d="M23.0374 5.65808C23.0374 5.56691 23.0171 5.47573 22.9766 5.38962C22.8956 5.21739 22.7385 5.10089 22.5663 5.06543L12.248 0.0607851C12.0809 -0.0202617 11.8833 -0.0202617 11.7162 0.0607851L1.2966 5.11102C1.09398 5.20726 0.962279 5.40988 0.952148 5.63782V5.64289C0.952148 5.64795 0.952148 5.65302 0.952148 5.66315V18.3369C0.952148 18.5699 1.08385 18.7826 1.2966 18.8839L11.7162 23.9341C11.7212 23.9341 11.7212 23.9342 11.7263 23.9392C11.7415 23.9443 11.7567 23.9493 11.7719 23.9595C11.777 23.9595 11.782 23.9645 11.7922 23.9645C11.8074 23.9696 11.8226 23.9747 11.8377 23.9797C11.8428 23.9797 11.8479 23.9848 11.8529 23.9848C11.8681 23.9899 11.8884 23.9899 11.9036 23.9949C11.9087 23.9949 11.9137 23.9949 11.9188 23.9949C11.9391 23.9949 11.9644 24 11.9846 24C12.0049 24 12.0302 24 12.0505 23.9949C12.0556 23.9949 12.0606 23.9949 12.0657 23.9949C12.0809 23.9949 12.1012 23.9899 12.1163 23.9848C12.1214 23.9848 12.1265 23.9797 12.1315 23.9797C12.1467 23.9747 12.1619 23.9696 12.1771 23.9645C12.1822 23.9645 12.1873 23.9595 12.1974 23.9595C12.2126 23.9544 12.2278 23.9493 12.243 23.9392C12.248 23.9392 12.248 23.9392 12.2531 23.9341L22.7031 18.8687C22.9108 18.7674 23.0475 18.5547 23.0475 18.3217V5.67328C23.0374 5.66821 23.0374 5.66315 23.0374 5.65808ZM11.9796 1.28155L21.0163 5.66315L17.6883 7.27902L8.6516 2.89743L11.9796 1.28155ZM11.9796 10.0447L2.94286 5.66315L7.2586 3.57113L16.2953 7.95272L11.9796 10.0447ZM2.16785 6.64078L11.3717 11.1034V22.4145L2.16785 17.9519V6.64078ZM12.5874 22.4145V11.1034L16.9082 9.00633V11.9645C16.9082 12.2989 17.1818 12.5724 17.5161 12.5724C17.8504 12.5724 18.1239 12.2989 18.1239 11.9645V8.41368L21.8217 6.62051V17.9316L12.5874 22.4145Z" fill="#4F4F4F"/>
</svg>