<svg width="24" height="24" viewBox="0 0 24 24" fill="none" xmlns="http://www.w3.org/2000/svg">
<path d="M5 21C5.26063 20.917 5.52866 20.8541 5.80148 20.8122C9.22284 20.2172 9.22284 19.1858 9.22284 18.551V18.1543C8.33685 17.3866 7.7061 16.3948 7.40656 15.2981C6.39283 15.2981 6.1394 13.2353 6.1394 12.9576C6.1394 12.6799 6.09716 11.4502 7.15313 11.4502C6.43507 8.87166 6.60402 6.29313 8.46254 6.29313C12.9821 3.31791 19.0223 5.65842 16.7414 11.4502C17.7973 11.4502 17.7551 12.6403 17.7551 12.9576C17.7551 13.275 17.5439 15.2981 16.4879 15.2981C16.1928 16.3759 15.5775 17.3527 14.7139 18.1147V18.5114C14.7139 19.1461 14.7139 20.1775 18.1352 20.7725C18.4307 20.8247 18.72 20.9009 19 21" stroke="#333333" stroke-miterlimit="10" stroke-linecap="round" stroke-linejoin="round"/>
<path d="M23.5 12C23.5 18.3513 18.3513 23.5 12 23.5C5.64873 23.5 0.5 18.3513 0.5 12C0.5 5.64873 5.64873 0.5 12 0.5C18.3513 0.5 23.5 5.64873 23.5 12Z" stroke="#333333" stroke-miterlimit="10" stroke-linecap="round" stroke-linejoin="round"/>
</svg>