<svg width="16" height="16" viewBox="0 0 16 16" fill="none" xmlns="http://www.w3.org/2000/svg">
<path fill-rule="evenodd" clip-rule="evenodd" d="M8.51827 0.336731L10.6774 4.91988L15.5054 5.6561C15.7229 5.68897 15.9038 5.84851 15.9717 6.06754C16.0397 6.28657 15.983 6.52703 15.8254 6.68767L12.3312 10.2523L13.156 15.2909C13.1931 15.5179 13.104 15.7473 12.9262 15.8827C12.7484 16.0181 12.5126 16.036 12.318 15.9289L8.00035 13.5537L3.682 15.9311C3.48725 16.0377 3.25165 16.0195 3.07395 15.8841C2.89625 15.7486 2.80716 15.5193 2.84402 15.2924L3.66881 10.2567L0.174558 6.69203C0.0170467 6.5314 -0.0396726 6.29093 0.0282842 6.0719C0.096241 5.85287 0.277066 5.69333 0.494615 5.66046L5.32256 4.92061L7.48173 0.337458C7.57916 0.13093 7.77992 0.000154445 7.99978 1.36701e-07C8.21965 -0.000154172 8.42058 0.13034 8.51827 0.336731Z" fill="#F2994A"/>
</svg>
