<svg width="22" height="22" viewBox="0 0 22 22" fill="none" xmlns="http://www.w3.org/2000/svg">
<g clip-path="url(#clip0)">
<path d="M0.461914 21.0833H21.5452" stroke="black" stroke-linecap="round" stroke-linejoin="round"/>
<path d="M4.125 21.0833V16.9583C4.125 16.8368 4.07671 16.7202 3.99076 16.6342C3.9048 16.5483 3.78822 16.5 3.66667 16.5H1.83333C1.71178 16.5 1.5952 16.5483 1.50924 16.6342C1.42329 16.7202 1.375 16.8368 1.375 16.9583V21.0833" stroke="black" stroke-linecap="round" stroke-linejoin="round"/>
<path d="M9.625 21.0834V12.3751C9.625 12.2535 9.57671 12.1369 9.49076 12.051C9.4048 11.965 9.28822 11.9167 9.16667 11.9167H7.33333C7.21178 11.9167 7.0952 11.965 7.00924 12.051C6.92329 12.1369 6.875 12.2535 6.875 12.3751V21.0834" stroke="black" stroke-linecap="round" stroke-linejoin="round"/>
<path d="M15.125 21.0833V14.2083C15.125 14.0868 15.0767 13.9702 14.9908 13.8842C14.9048 13.7983 14.7882 13.75 14.6667 13.75H12.8333C12.7118 13.75 12.5952 13.7983 12.5092 13.8842C12.4233 13.9702 12.375 14.0868 12.375 14.2083V21.0833" stroke="black" stroke-linecap="round" stroke-linejoin="round"/>
<path d="M20.625 21.0833V7.79159C20.625 7.67003 20.5767 7.55345 20.4908 7.46749C20.4048 7.38154 20.2882 7.33325 20.1667 7.33325H18.3333C18.2118 7.33325 18.0952 7.38154 18.0092 7.46749C17.9233 7.55345 17.875 7.67003 17.875 7.79159V21.0833" stroke="black" stroke-linecap="round" stroke-linejoin="round"/>
<path d="M19.7083 0.916748L14.5567 6.46808C14.317 6.72646 14.008 6.9103 13.6666 6.9976C13.3252 7.0849 12.9659 7.07196 12.6317 6.96033L9.22258 5.82275C8.9263 5.72398 8.6097 5.70253 8.30281 5.76045C7.99592 5.81836 7.70891 5.95371 7.469 6.15366L2.75 10.0834" stroke="black" stroke-linecap="round" stroke-linejoin="round"/>
<path d="M16.0454 0.916748H19.7121V4.58341" stroke="black" stroke-linecap="round" stroke-linejoin="round"/>
</g>
<defs>
<clipPath id="clip0">
<rect width="22" height="22" fill="white"/>
</clipPath>
</defs>
</svg>