<svg width="52" height="52" viewBox="0 0 52 52" fill="none" xmlns="http://www.w3.org/2000/svg">
<path d="M26 0C11.664 0 0 11.663 0 26C0 40.337 11.664 52 26 52C40.336 52 52 40.337 52 26C52 11.663 40.336 0 26 0ZM40.495 17.329L24.495 35.329C24.101 35.772 23.552 36 22.999 36C22.56 36 22.119 35.856 21.75 35.562L11.75 27.562C10.888 26.873 10.748 25.614 11.438 24.751C12.127 23.888 13.387 23.748 14.249 24.438L22.766 31.251L37.505 14.67C38.237 13.844 39.503 13.77 40.328 14.504C41.154 15.239 41.229 16.503 40.495 17.329Z" fill="#27AE60"/>
</svg>