<svg width="24" height="24" viewBox="0 0 24 24" fill="none" xmlns="http://www.w3.org/2000/svg">
<g clip-path="url(#clip0)">
<path d="M23.078 13.272L13.7638 3.95261C13.2719 3.46076 12.6144 3.18636 11.9206 3.18636C11.8637 3.18636 11.8067 3.18636 11.7498 3.19153L5.01396 3.63679C4.28394 3.68339 3.69372 4.27361 3.64712 5.00363L3.48662 7.39559C3.14491 7.19885 2.81874 6.95034 2.52362 6.65522C1.80396 5.93556 1.35871 5.03987 1.26551 4.12865C1.1775 3.26402 1.42601 2.49258 1.96446 1.95413C3.10867 0.809925 5.21588 1.06362 6.67073 2.51329C6.91407 2.75663 7.30755 2.75663 7.55089 2.51329C7.79423 2.26996 7.79423 1.87647 7.55089 1.63313C5.60418 -0.298041 2.70483 -0.546557 1.07913 1.07915C0.271449 1.88683 -0.101325 3.01033 0.0229329 4.25808C0.142013 5.45406 0.716706 6.61898 1.63829 7.54056C2.15603 8.0583 2.75661 8.46732 3.39343 8.7469L3.19669 11.7446C3.14491 12.4953 3.42449 13.2305 3.95777 13.7638L13.2771 23.0832C13.8673 23.6734 14.6491 23.9944 15.4827 23.9944C16.3162 23.9944 17.098 23.6682 17.6883 23.0832L23.0883 17.6831C23.6785 17.0929 23.9995 16.3111 23.9995 15.4775C23.9944 14.6388 23.6682 13.857 23.078 13.272ZM22.203 16.7978L16.7977 22.203C16.4457 22.5551 15.9745 22.7518 15.4723 22.7518C14.9701 22.7518 14.499 22.5551 14.1469 22.203L4.82757 12.8836C4.54799 12.6041 4.40302 12.2209 4.42891 11.8275L4.61012 9.11449C4.71367 9.13003 4.81722 9.14556 4.92077 9.15591C5.07609 9.17144 5.23141 9.1818 5.38156 9.1818C6.44292 9.1818 7.39039 8.80903 8.09452 8.1049C8.33786 7.86156 8.33786 7.46808 8.09452 7.22474C7.85118 6.9814 7.4577 6.9814 7.21436 7.22474C6.67591 7.76319 5.90447 8.01171 5.03985 7.92369C4.92076 7.91333 4.80686 7.89263 4.69296 7.87192L4.87935 5.09682C4.88452 4.98292 4.97772 4.8949 5.09162 4.88455L11.8274 4.43929C11.8585 4.43929 11.8896 4.43411 11.9206 4.43411C12.283 4.43411 12.6351 4.57908 12.8888 4.83277L22.203 14.1469C22.555 14.499 22.7518 14.9701 22.7518 15.4724C22.7518 15.9746 22.555 16.4457 22.203 16.7978Z" fill="#333333"/>
</g>
<defs>
<clipPath id="clip0">
<rect width="24" height="24" fill="white"/>
</clipPath>
</defs>
</svg>