<?xml version="1.0" encoding="utf-8"?>
<!-- Generator: Adobe Illustrator 23.0.5, SVG Export Plug-In . SVG Version: 6.00 Build 0)  -->
<svg version="1.1" id="Layer_1" xmlns="http://www.w3.org/2000/svg" xmlns:xlink="http://www.w3.org/1999/xlink" x="0px" y="0px"
	 viewBox="0 0 42 42" style="enable-background:new 0 0 42 42;" xml:space="preserve">
<style type="text/css">
	.st0{fill:#FFFFFF;}
</style>
<g>
	<path class="st0" d="M35.8,27.8c-0.6,0-1.9,0.6-2.2,0.8c-1.2,0.6-3,1.6-4.1,2.4c-0.1,0.1-0.2,0.1-0.3,0.2c-0.5,0.3-1,0.5-1.6,0.7
		c-3.3,0.7-8,0.8-8,0.8l-0.3,0c-0.2,0-0.4-0.1-0.4-0.3c0-0.2,0.1-0.4,0.4-0.5l7.1-0.7c0.8-0.1,1.4-0.8,1.3-1.6
		c-0.1-0.8-0.8-1.4-1.6-1.3l-6.3-0.1c-0.4,0-1.1-0.1-1.5-0.2c-4.1-1.2-6.4-0.1-7.6,0.4c-0.3-0.5-0.8-0.7-1.4-0.7l-2.7,0.2
		c-0.9,0.1-1.6,0.8-1.5,1.7l0.4,6c0.1,0.9,0.8,1.5,1.8,1.5l2.7-0.2c0.6,0,1-0.4,1.2-0.9l12,0.5c1.3,0.1,2.6,0,3.8-0.6l0.3-0.2l9-5.3
		c0.4-0.3,0.8-0.7,0.8-1.2C37,28.5,36.7,27.9,35.8,27.8z M8.2,35.6c-0.5,0-0.9-0.4-0.9-0.9c0-0.5,0.4-0.9,0.9-0.9
		c0.5,0,0.9,0.4,0.9,0.9C9.1,35.2,8.7,35.6,8.2,35.6z"/>
	<path class="st0" d="M29.4,29.7c0.9-0.6,2.8-1.7,3.9-2.2c0.3-0.2,0.7-0.3,1-0.5c-0.5-0.3-1-0.3-1.5-0.1c-1,0.4-2.9,1.3-3.8,1.8
		c0,0,0,0,0,0c0.1,0.2,0.1,0.4,0.1,0.6c0,0.2,0,0.3,0,0.5C29.2,29.8,29.3,29.7,29.4,29.7z"/>
	<path class="st0" d="M31.8,26.3c-0.5-0.3-1-0.3-1.5-0.1c-0.6,0.2-2,0.7-2.7,1c0.3,0.2,0.5,0.4,0.7,0.6c0,0,0.1-0.1,0.1-0.1l0.5-0.3
		C29.7,27.1,31.1,26.6,31.8,26.3z"/>
	<path class="st0" d="M30.9,14.5c1.8-0.8,3-2.5,3-4.6c0-2.7-2.2-5-5-5s-5,2.2-5,5c0,0,0,0.1,0,0.1C27,10.4,29.5,12.1,30.9,14.5z"/>
	<path class="st0" d="M23.1,26.3c4,0,7.2-3.2,7.2-7.2s-3.2-7.2-7.2-7.2s-7.2,3.2-7.2,7.2S19.1,26.3,23.1,26.3z M20.5,21.9
		c0.1-0.2,0.1-0.5,0.2-0.7c0.1-0.3,0.2-0.3,0.4-0.2c0.4,0.2,0.9,0.3,1.4,0.4c0.3,0,0.6,0,0.9-0.1c0.5-0.2,0.6-0.8,0.2-1.2
		c-0.2-0.1-0.3-0.2-0.5-0.3c-0.5-0.2-0.9-0.4-1.4-0.6c-0.7-0.4-1.2-1-1.1-1.9c0.1-1,0.6-1.6,1.5-1.9c0.4-0.1,0.4-0.1,0.4-0.5
		c0-0.1,0-0.3,0-0.4c0-0.3,0.1-0.3,0.3-0.4c0.1,0,0.2,0,0.3,0c0.6,0,0.6,0,0.6,0.6c0,0.4,0,0.4,0.4,0.5c0.3,0.1,0.7,0.2,1,0.3
		c0.2,0.1,0.2,0.2,0.2,0.4c-0.1,0.3-0.2,0.5-0.2,0.8C25,17,24.9,17,24.6,16.9c-0.5-0.2-1-0.3-1.5-0.3c-0.1,0-0.3,0-0.4,0.1
		c-0.5,0.2-0.5,0.7-0.1,1c0.2,0.2,0.4,0.3,0.7,0.4c0.4,0.2,0.8,0.3,1.2,0.5c1.2,0.7,1.6,2.2,0.7,3.3c-0.3,0.4-0.7,0.6-1.2,0.8
		c-0.2,0.1-0.3,0.2-0.3,0.4c0,0.2,0,0.4,0,0.6c0,0.2-0.1,0.3-0.3,0.3c-0.2,0-0.5,0-0.7,0c-0.2,0-0.3-0.1-0.3-0.3c0-0.2,0-0.3,0-0.5
		c0-0.3,0-0.4-0.3-0.4c-0.4-0.1-0.8-0.2-1.2-0.4C20.5,22.3,20.5,22.3,20.5,21.9z"/>
</g>
</svg>
