<svg width="17" height="21" viewBox="0 0 17 21" fill="none" xmlns="http://www.w3.org/2000/svg">
<g clip-path="url(#clip0)">
<path d="M8.50247 10.7667C5.53427 10.7667 3.11914 8.35153 3.11914 5.38333C3.11914 2.41513 5.53427 0 8.50247 0C11.4707 0 13.8858 2.41513 13.8858 5.38333C13.8858 8.35153 11.4707 10.7667 8.50247 10.7667ZM8.50247 1.13333C6.15874 1.13333 4.25247 3.0396 4.25247 5.38333C4.25247 7.72707 6.15874 9.63333 8.50247 9.63333C10.8462 9.63333 12.7525 7.72707 12.7525 5.38333C12.7525 3.0396 10.8462 1.13333 8.50247 1.13333Z" fill="black"/>
<path d="M0.566667 20.3999C0.253867 20.3999 0 20.1461 0 19.8333C0 15.1469 3.81367 11.3333 8.5 11.3333C13.1863 11.3333 17 15.1469 17 19.8333C17 20.1461 16.7461 20.3999 16.4333 20.3999H0.566667ZM15.8451 19.2666C15.5561 15.4303 12.3839 12.4666 8.5 12.4666C4.61607 12.4666 1.44387 15.4303 1.15487 19.2666H15.8451Z" fill="black"/>
</g>
<defs>
<clipPath id="clip0">
<rect width="17" height="20.4" fill="white"/>
</clipPath>
</defs>
</svg>