<svg width="24" height="24" viewBox="0 0 24 24" fill="none" xmlns="http://www.w3.org/2000/svg">
<path d="M23.8792 11.1802H22.7277V5.88323C22.7277 4.61335 21.6946 3.58025 20.4247 3.58025H18.8651L17.2691 0.710733C17.0259 0.272195 16.563 0 16.061 0C15.827 0 15.5948 0.0603445 15.3899 0.174082L9.26482 3.58018H2.4231C1.15321 3.58018 0.120117 4.61328 0.120117 5.88316V21.6969C0.120117 22.9668 1.15321 23.9999 2.4231 23.9999H20.4247C21.6946 23.9999 22.7277 22.9668 22.7277 21.6969V17.0527H23.8792V11.1802ZM20.4247 4.5014C21.134 4.5014 21.7134 5.04027 21.7913 5.72979H20.0603L19.3777 4.5014H20.4247ZM15.838 0.979201C16.054 0.858082 16.3447 0.942794 16.464 1.15794L19.0065 5.72936H7.29531L15.838 0.979201ZM21.8065 21.6969C21.8065 22.4588 21.1865 23.0788 20.4246 23.0788H2.4231C1.66127 23.0788 1.04127 22.4588 1.04127 21.6969V5.88323C1.04127 5.1214 1.66127 4.5014 2.4231 4.5014H7.6085L5.39948 5.72986H2.71099C2.45628 5.72986 2.25038 5.9362 2.25038 6.19048C2.25038 6.44475 2.45628 6.65109 2.71099 6.65109H3.74272H20.5725H21.8065V11.1806H18.4381C16.8739 11.1806 15.6009 12.4537 15.6009 14.0179V14.2159C15.6009 15.7802 16.874 17.0532 18.4381 17.0532H21.8065V21.6969ZM22.9579 16.1316H22.7277H18.4381C17.3815 16.1316 16.522 15.2721 16.522 14.2154V14.0174C16.522 12.9607 17.3815 12.1012 18.4381 12.1012H22.7277H22.9579V16.1316ZM19.8489 14.1542C19.8489 14.7162 19.3938 15.1712 18.8319 15.1712C18.27 15.1712 17.815 14.7161 17.815 14.1542C17.815 13.5924 18.2701 13.1373 18.8319 13.1373C19.3939 13.1372 19.8489 13.5927 19.8489 14.1542Z" fill="#333333"/>
</svg>