<svg width="28" height="28" viewBox="0 0 28 28" fill="none" xmlns="http://www.w3.org/2000/svg">
<path d="M13.5488 12.643H15.7804C17.5416 12.643 18.9675 11.0633 18.9675 9.11376V6.90399H24.8788C25.4303 6.90399 25.9578 7.00399 26.451 7.17857V7.09098C26.451 5.21308 24.9274 3.68976 23.0489 3.68976H18.9143C18.7609 3.15664 18.2763 2.76318 17.6933 2.76318H11.6359C11.0528 2.76318 10.5678 3.15664 10.4145 3.68976H4.95203C3.07307 3.68976 1.55127 5.21308 1.55127 7.09098V7.17857C2.04287 7.00399 2.57038 6.90399 3.12179 6.90399H10.3616V9.11422C10.3611 11.0633 11.7875 12.643 13.5488 12.643ZM14.6642 5.43453C15.9171 5.43453 16.9331 6.45014 16.9331 7.70298C16.9331 8.95595 15.9171 9.9705 14.6642 9.9705C13.4116 9.9705 12.3957 8.95595 12.3957 7.70298C12.3957 6.45014 13.4116 5.43453 14.6642 5.43453Z" fill="#E02E24"/>
<path d="M24.8788 8.17969H19.9147V9.4549C19.9147 11.7401 18.0567 13.5992 15.7716 13.5992H13.54C11.2551 13.5992 9.3965 11.7401 9.3965 9.4549V8.17969H3.12189C1.76602 8.17969 0.593713 8.96884 0.0291081 10.1085C0.0108908 10.2612 0 10.415 0 10.5727V21.4115C0 23.5241 1.71414 25.2366 3.8257 25.2366H24.1744C26.2865 25.2366 28 23.5241 28 21.4115V10.5727C28 10.4151 27.9897 10.2607 27.9717 10.1085C27.407 8.96831 26.2344 8.17969 24.8788 8.17969ZM2.86956 21.5699C2.86956 21.7461 2.72672 21.8887 2.55082 21.8887C2.37426 21.8887 2.23182 21.7461 2.23182 21.5699V20.614C2.23182 20.4381 2.37426 20.2952 2.55082 20.2952C2.72672 20.2952 2.86956 20.4381 2.86956 20.614V21.5699ZM2.86956 18.7135C2.86956 18.8897 2.72672 19.0309 2.55082 19.0309C2.37426 19.0309 2.23182 18.8897 2.23182 18.7135V16.813C2.23182 16.6353 2.37426 16.4937 2.55082 16.4937C2.72672 16.4937 2.86956 16.6353 2.86956 16.813V18.7135ZM2.86956 14.9108C2.86956 15.0867 2.72672 15.2296 2.55082 15.2296C2.37426 15.2296 2.23182 15.0867 2.23182 14.9108V13.0094C2.23182 12.8333 2.37426 12.6908 2.55082 12.6908C2.72672 12.6908 2.86956 12.8333 2.86956 13.0094V14.9108ZM5.00072 11.1576H4.4635C4.08048 11.1576 3.71059 11.2952 3.42142 11.5437C3.36023 11.5969 3.28631 11.6224 3.21166 11.6224C3.12282 11.6224 3.03378 11.5857 2.97147 11.5115C2.85616 11.3782 2.87107 11.1778 3.00361 11.0628C3.40901 10.7123 3.92715 10.5192 4.46304 10.5192H5.00012C5.17695 10.5192 5.31793 10.6613 5.31793 10.8378C5.31853 11.0139 5.17748 11.1576 5.00072 11.1576ZM7.86242 11.1576H6.9066C6.73096 11.1576 6.58773 11.0139 6.58773 10.8384C6.58773 10.6618 6.73096 10.5198 6.9066 10.5198H7.86242C8.03938 10.5198 8.18181 10.6618 8.18181 10.8384C8.18181 11.0139 8.03938 11.1576 7.86242 11.1576ZM21.3579 11.1576H20.402C20.2256 11.1576 20.0839 11.0139 20.0839 10.8384C20.0839 10.6618 20.2256 10.5198 20.402 10.5198H21.3579C21.5352 10.5198 21.6772 10.6618 21.6772 10.8384C21.6772 11.0139 21.5352 11.1576 21.3579 11.1576ZM25.2939 11.5121C25.2309 11.5863 25.142 11.6229 25.0539 11.6229C24.9785 11.6229 24.905 11.5968 24.8438 11.5442C24.555 11.2961 24.1855 11.1581 23.802 11.1581H23.2655C23.0886 11.1581 22.9468 11.0144 22.9468 10.8389C22.9468 10.6622 23.0886 10.5203 23.2655 10.5203H23.802C24.3395 10.5203 24.8566 10.7136 25.2613 11.0637C25.3949 11.1784 25.4097 11.3788 25.2939 11.5121ZM26.0337 21.5699C26.0337 21.7461 25.8919 21.8887 25.7147 21.8887C25.5393 21.8887 25.3959 21.7461 25.3959 21.5699V20.614C25.3959 20.4381 25.5393 20.2952 25.7147 20.2952C25.8919 20.2952 26.0337 20.4381 26.0337 20.614V21.5699ZM26.0337 18.7135C26.0337 18.8897 25.8919 19.0309 25.7147 19.0309C25.5393 19.0309 25.3959 18.8897 25.3959 18.7135V16.813C25.3959 16.6353 25.5393 16.4937 25.7147 16.4937C25.8919 16.4937 26.0337 16.6353 26.0337 16.813V18.7135ZM26.0337 14.9108C26.0337 15.0867 25.8919 15.2296 25.7147 15.2296C25.5393 15.2296 25.3959 15.0867 25.3959 14.9108V13.0094C25.3959 12.8333 25.5393 12.6908 25.7147 12.6908C25.8919 12.6908 26.0337 12.8333 26.0337 13.0094V14.9108Z" fill="#E02E24"/>
</svg>
