<svg width="20" height="20" viewBox="0 0 20 20" fill="none" xmlns="http://www.w3.org/2000/svg">
<path d="M10 20C15.5228 20 20 15.5228 20 10C20 4.47715 15.5228 0 10 0C4.47715 0 0 4.47715 0 10C0 15.5228 4.47715 20 10 20Z" fill="#F2994A"/>
<path d="M9.87202 4.375H10.128C10.7257 4.375 11.1899 4.89586 11.1214 5.48962L10.3483 12.1896C10.3279 12.3665 10.1781 12.5 10 12.5C9.8219 12.5 9.67209 12.3665 9.65168 12.1896L8.87861 5.48962C8.8101 4.89586 9.27432 4.375 9.87202 4.375Z" fill="white"/>
<circle cx="10" cy="14.6875" r="0.9375" fill="white"/>
</svg>
