<?xml version="1.0" encoding="utf-8"?>
<!-- Generator: Adobe Illustrator 23.0.5, SVG Export Plug-In . SVG Version: 6.00 Build 0)  -->
<svg version="1.1" id="Layer_1" xmlns="http://www.w3.org/2000/svg" xmlns:xlink="http://www.w3.org/1999/xlink" x="0px" y="0px"
	 viewBox="0 0 42 42" style="enable-background:new 0 0 42 42;" xml:space="preserve">
<style type="text/css">
	.st0{fill:#FFFFFF;}
</style>
<g>
	<path class="st0" d="M17.7,12h6.7c0.3,0,0.5-0.2,0.5-0.5c0-0.2-0.2-0.5-0.5-0.5h-6.7c-0.3,0-0.5,0.2-0.5,0.5
		C17.2,11.8,17.4,12,17.7,12z"/>
	<path class="st0" d="M23.7,10.4c0.3-1.7,1.5-3.9,1.5-3.9s-5-2.3-6.1-1.2c-0.5,0.4,0.7,2,0.3,2.5c-0.4,0.4-2.4,0-2.4,0
		s0.8,1.4,1.1,2.6H23.7z"/>
	<path class="st0" d="M24.6,12.7c-0.1,0-0.1,0-0.2,0h-6.7c-0.1,0-0.2,0-0.3-0.1c-4.6,4.4-7.2,11.1-7.2,15.1c0,5.1,5.2,9.3,10.9,9.3
		c5.6,0,10.9-4.2,10.9-9.3C31.9,23.6,29.3,17.6,24.6,12.7z M21,31.1c-3,0-5.4-2.4-5.4-5.4c0-3,2.4-5.4,5.4-5.4c3,0,5.4,2.4,5.4,5.4
		C26.4,28.7,24,31.1,21,31.1z"/>
	<path class="st0" d="M22.7,25.6c-0.3-0.2-0.8-0.4-1.5-0.6v-2.3c0.4,0,0.7,0.2,0.9,0.5c0.1,0.2,0.2,0.4,0.2,0.6h0.8
		c0-0.5-0.2-1-0.5-1.3c-0.3-0.3-0.8-0.5-1.4-0.6v-0.6h-0.4V22c-0.6,0-1.1,0.2-1.5,0.6c-0.3,0.4-0.5,0.8-0.5,1.3c0,0.5,0.2,1,0.5,1.3
		c0.3,0.3,0.8,0.5,1.5,0.6v2.6c-0.5,0-0.9-0.2-1.1-0.6c-0.1-0.2-0.2-0.5-0.2-0.9h-0.8c0,0.5,0.1,1,0.3,1.3c0.3,0.6,0.9,0.9,1.9,1V30
		h0.4v-0.9c0.6-0.1,1-0.2,1.3-0.4c0.5-0.4,0.8-0.9,0.8-1.8C23.3,26.3,23.1,25.9,22.7,25.6z M20.8,24.9c-0.4-0.1-0.6-0.2-0.8-0.4
		c-0.2-0.2-0.3-0.4-0.3-0.7c0-0.3,0.1-0.5,0.3-0.7c0.2-0.2,0.5-0.4,0.9-0.4L20.8,24.9z M22.3,27.8c-0.2,0.4-0.6,0.6-1.1,0.6v-2.5
		c0.4,0.1,0.7,0.2,0.8,0.3c0.3,0.2,0.4,0.5,0.4,0.9C22.5,27.4,22.4,27.6,22.3,27.8z"/>
</g>
</svg>
