<svg width="48" height="48" viewBox="0 0 48 48" fill="none" xmlns="http://www.w3.org/2000/svg">
<circle cx="24" cy="24" r="24" fill="#F2F2F2"/>
<g clip-path="url(#clip0)">
<path d="M17.2982 26.2735C18.1975 26.2735 19.0668 26.2154 19.8893 26.1073V17.0914C19.0668 16.9834 18.1975 16.9253 17.2982 16.9253C12.1635 16.9253 8.00098 18.8132 8.00098 21.1421V22.0566C8.00098 24.3855 12.1635 26.2735 17.2982 26.2735Z" fill="#F2994A"/>
<path d="M17.2982 30.9813C18.1975 30.9813 19.0668 30.9232 19.8893 30.8152V28.1725C19.0666 28.2806 18.1978 28.3395 17.2982 28.3395C12.8162 28.3395 9.07524 26.9009 8.19651 24.9863C8.06855 25.2652 8.00098 25.554 8.00098 25.85V26.7645C8.00098 29.0934 12.1635 30.9813 17.2982 30.9813Z" fill="#F2994A"/>
<path d="M19.8883 33.0855V32.8801C19.0656 32.9881 18.1968 33.047 17.2973 33.047C12.8152 33.047 9.07426 31.6084 8.19554 29.6938C8.06757 29.9727 8 30.2614 8 30.5574V31.4719C8 33.8009 12.1625 35.6888 17.2973 35.6888C18.3241 35.6888 19.3118 35.6131 20.2353 35.4737C20.0064 35.0054 19.8883 34.5115 19.8883 33.9999V33.0855Z" fill="#F2994A"/>
<path d="M30.703 9.7832C25.5683 9.7832 21.4058 11.6711 21.4058 14V14.9145C21.4058 17.2434 25.5683 19.1313 30.703 19.1313C35.8377 19.1313 40.0003 17.2434 40.0003 14.9145V14C40.0003 11.6711 35.8377 9.7832 30.703 9.7832Z" fill="#F2994A"/>
<path d="M30.703 21.1974C26.221 21.1974 22.48 19.7589 21.6013 17.8442C21.4733 18.123 21.4058 18.4118 21.4058 18.7079V19.6224C21.4058 21.9513 25.5683 23.8392 30.703 23.8392C35.8377 23.8392 40.0003 21.9513 40.0003 19.6224V18.7079C40.0003 18.4118 39.9327 18.123 39.8048 17.8442C38.9261 19.7589 35.1851 21.1974 30.703 21.1974Z" fill="#F2994A"/>
<path d="M30.703 25.9054C26.221 25.9054 22.48 24.4668 21.6013 22.5522C21.4733 22.8311 21.4058 23.1198 21.4058 23.4159V24.3304C21.4058 26.6594 25.5683 28.5473 30.703 28.5473C35.8377 28.5473 40.0003 26.6594 40.0003 24.3304V23.4159C40.0003 23.1198 39.9327 22.8311 39.8048 22.5522C38.9261 24.4669 35.1851 25.9054 30.703 25.9054Z" fill="#F2994A"/>
<path d="M30.703 30.8673C26.221 30.8673 22.48 29.4287 21.6013 27.5142C21.4733 27.793 21.4058 28.0817 21.4058 28.3777V29.2923C21.4058 31.6212 25.5683 33.5091 30.703 33.5091C35.8377 33.5091 40.0003 31.6212 40.0003 29.2923V28.3777C40.0003 28.0817 39.9327 27.7929 39.8048 27.5142C38.9261 29.4287 35.1851 30.8673 30.703 30.8673Z" fill="#F2994A"/>
<path d="M30.703 35.5748C26.221 35.5748 22.48 34.1363 21.6013 32.2218C21.4733 32.5006 21.4058 32.7895 21.4058 33.0853V33.9998C21.4058 36.3288 25.5683 38.2167 30.703 38.2167C35.8377 38.2167 40.0003 36.3288 40.0003 33.9998V33.0853C40.0003 32.7892 39.9327 32.5004 39.8048 32.2217C38.9261 34.1363 35.1851 35.5748 30.703 35.5748Z" fill="#F2994A"/>
</g>
<defs>
<clipPath id="clip0">
<rect width="32" height="32" fill="white" transform="translate(8 8)"/>
</clipPath>
</defs>
</svg>
