<svg width="36" height="24" viewBox="0 0 36 24" fill="none" xmlns="http://www.w3.org/2000/svg">
<path d="M32 0H4C1.79086 0 0 1.79086 0 4V20C0 22.2091 1.79086 24 4 24H32C34.2091 24 36 22.2091 36 20V4C36 1.79086 34.2091 0 32 0Z" fill="#e32429"/>
<path d="M8.25 18.75C13.5856 18.7457 18.898 19.4522 24.047 20.851C24.774 21.049 25.5 20.509 25.5 19.755V18.75M9.75 4.5V5.25C9.75 5.44891 9.67098 5.63968 9.53033 5.78033C9.38968 5.92098 9.19891 6 9 6H8.25M8.25 6V5.625C8.25 5.004 8.754 4.5 9.375 4.5H26.25M8.25 6V15M26.25 4.5V5.25C26.25 5.664 26.586 6 27 6H27.75M26.25 4.5H26.625C27.246 4.5 27.75 5.004 27.75 5.625V15.375C27.75 15.996 27.246 16.5 26.625 16.5H26.25M8.25 15V15.375C8.25 15.6734 8.36853 15.9595 8.5795 16.1705C8.79048 16.3815 9.07663 16.5 9.375 16.5H9.75M8.25 15H9C9.19891 15 9.38968 15.079 9.53033 15.2197C9.67098 15.3603 9.75 15.5511 9.75 15.75V16.5M26.25 16.5V15.75C26.25 15.5511 26.329 15.3603 26.4697 15.2197C26.6103 15.079 26.8011 15 27 15H27.75M26.25 16.5H9.75M21 10.5C21 11.2956 20.6839 12.0587 20.1213 12.6213C19.5587 13.1839 18.7956 13.5 18 13.5C17.2044 13.5 16.4413 13.1839 15.8787 12.6213C15.3161 12.0587 15 11.2956 15 10.5C15 9.70435 15.3161 8.94129 15.8787 8.37868C16.4413 7.81607 17.2044 7.5 18 7.5C18.7956 7.5 19.5587 7.81607 20.1213 8.37868C20.6839 8.94129 21 9.70435 21 10.5ZM24 10.5H24.008V10.508H24V10.5ZM12 10.5H12.008V10.508H12V10.5Z" stroke="white" stroke-linecap="round" stroke-linejoin="round"/>
</svg>
