<?xml version="1.0" encoding="utf-8"?>
<!-- Generator: Adobe Illustrator 24.3.0, SVG Export Plug-In . SVG Version: 6.00 Build 0)  -->
<svg version="1.1" id="Layer_1" xmlns="http://www.w3.org/2000/svg" xmlns:xlink="http://www.w3.org/1999/xlink" x="0px" y="0px"
	 viewBox="0 0 32 32" style="enable-background:new 0 0 32 32;" xml:space="preserve">
<style type="text/css">
	.st0{fill:#FFFFFF;}
	.st1{fill:none;stroke:#ff9fd3;stroke-width:0.882;stroke-linecap:round;stroke-miterlimit:10;}
	.st2{fill:none;stroke:#828282;stroke-width:1.323;stroke-linecap:round;stroke-linejoin:round;stroke-miterlimit:10;}
	.st3{fill:#FFFFFF;stroke:#828282;stroke-width:1.323;stroke-linecap:round;stroke-linejoin:round;stroke-miterlimit:10;}
	.st4{fill:none;stroke:#828282;stroke-width:0.882;stroke-linecap:round;stroke-linejoin:round;stroke-miterlimit:10;}
</style>
<path id="XMLID_22_" class="st0" d="M11.46,29.75l12.17-14.19l-13.45-4.4L1.53,21.24c-0.8,0.93-0.69,2.33,0.24,3.13l6.56,5.62
	C9.26,30.79,10.66,30.69,11.46,29.75z"/>
<path id="XMLID_23_" class="st0" d="M23.63,15.56c0,0-2.05-4.38-5.89-3.18c-3.83,1.2-6.29-2.7-6.29-2.7l-2.17,2.53l13.62,4.2
	L23.63,15.56z"/>
<g>
	<path id="XMLID_27_" class="st1" d="M25.35,8.26c0,0,1.56-1.15,1.27-2.82c-0.28-1.67,0.75-2.03,0.75-2.79
		c0-0.76-0.48-0.98-0.48-0.98"/>
	<path id="XMLID_28_" class="st1" d="M20.73,4.29c0,0,0.9-1.71,2.59-1.69c1.7,0.02,1.89-1.05,2.64-1.17
		c0.75-0.12,1.04,0.32,1.04,0.32"/>
	<path id="XMLID_25_" class="st1" d="M25.82,10.95L25.82,10.95c0.63-0.73,0.54-1.83-0.19-2.46l-5.18-4.44
		C19.72,3.43,18.62,3.51,18,4.24l-0.16,0.18"/>
</g>
<g>
	<path id="XMLID_24_" class="st2" d="M17.81,5.64l6.67,5.71c0.9,0.77,1.01,2.13,0.23,3.03L11.45,29.84
		c-0.77,0.9-2.13,1.01-3.03,0.23l-6.67-5.71c-0.9-0.77-1.01-2.13-0.23-3.03L14.78,5.87C15.55,4.97,16.9,4.87,17.81,5.64z"/>
	<line id="XMLID_29_" class="st3" x1="20.7" y1="18.98" x2="15.72" y2="14.71"/>
	<line id="XMLID_30_" class="st3" x1="18.25" y1="21.83" x2="13.27" y2="17.57"/>
	<line id="XMLID_31_" class="st3" x1="15.8" y1="24.69" x2="10.82" y2="20.42"/>
	<line id="XMLID_33_" class="st3" x1="13.35" y1="27.55" x2="8.37" y2="23.28"/>
	<path id="XMLID_91_" class="st4" d="M31,13.9l-1.23-3.18l-1.07,2.8c-0.06,0.11-0.11,0.24-0.14,0.37l0,0h0
		c-0.01,0.07-0.02,0.15-0.02,0.23c0,0.68,0.55,1.23,1.23,1.23c0.68,0,1.23-0.55,1.23-1.23c0-0.08-0.01-0.16-0.02-0.23H31z"/>
	<path id="XMLID_78_" class="st4" d="M31,21.28l-1.23-3.18l-1.07,2.8c-0.06,0.11-0.11,0.24-0.14,0.37l0,0h0
		c-0.01,0.07-0.02,0.15-0.02,0.23c0,0.68,0.55,1.23,1.23,1.23c0.68,0,1.23-0.55,1.23-1.23c0-0.08-0.01-0.16-0.02-0.23H31z"/>
</g>
</svg>
