<svg xmlns="http://www.w3.org/2000/svg" viewBox="0 0 24 24" width="24" height="24">
<style type="text/css">
	.st0{fill:#010101;}
	.st1{fill:#EE2D59;}
	.st2{fill:#FFFFFF;}
	.st3{fill:#19BEC9;}
	.st4{display:none;}
	.st5{display:inline;fill:#19BEC9;}
	.st6{display:inline;fill:#EE2D59;}
	.st7{display:inline;fill:#FFFFFF;}
</style>
<path class="st0" d="M12,0.5L12,0.5c6.4,0,11.5,5.1,11.5,11.5v0c0,6.4-5.1,11.5-11.5,11.5h0C5.6,23.5,0.5,18.4,0.5,12v0
	C0.5,5.6,5.6,0.5,12,0.5z"/>
<g>
	<g>
		<path class="st1" d="M7.2,14.5c0.1-0.9,0.4-1.3,1.1-1.8c0.9-0.7,2-0.3,2-0.3v-2.2c0.3,0,0.6,0,0.8,0.1v2.9c0,0-1.1-0.4-2,0.3
			c-0.6,0.5-1,1-1.1,1.8c0,0.5,0.1,1.1,0.5,1.6c-0.1-0.1-0.2-0.1-0.3-0.2C7.4,16,7.2,15.1,7.2,14.5z M15.8,6
			c-0.6-0.7-0.9-1.4-0.9-1.9h0.8c0,0-0.2,1.3,1,2.6l0,0C16.4,6.5,16.1,6.3,15.8,6L15.8,6z M19.6,8.1v2.8c0,0-1,0-1.7-0.2
			c-1-0.3-1.7-0.7-1.7-0.7s-0.5-0.3-0.5-0.3v5.8c0,0.3-0.1,1.1-0.3,1.8c-0.3,0.9-0.9,1.5-1,1.6c0,0-0.6,0.8-1.8,1.3
			c-1,0.5-1.9,0.5-2.2,0.5c0,0-1.5,0.1-2.9-0.9C7.2,19.5,7,19.3,6.7,19l0,0c1.4,0.9,2.9,0.9,2.9,0.9c0.3,0,1.2,0,2.2-0.5
			c1.1-0.5,1.8-1.3,1.8-1.3c0.1-0.1,0.6-0.7,1-1.6c0.3-0.7,0.3-1.5,0.3-1.8V8.9c0,0,0.5,0.3,0.5,0.3S16,9.7,17,9.9
			c0.7,0.2,1.7,0.2,1.7,0.2V8C19.1,8.1,19.4,8.1,19.6,8.1z"/>
		<path class="st2" d="M18.8,8v2.2c0,0-1,0-1.7-0.2c-1-0.3-1.7-0.7-1.7-0.7s-0.5-0.3-0.5-0.3v5.8c0,0.3-0.1,1.1-0.3,1.8
			c-0.3,0.9-0.9,1.5-1,1.6c0,0-0.6,0.8-1.8,1.3c-1,0.5-1.9,0.5-2.2,0.5c0,0-1.5,0.1-2.9-0.9l0,0c-0.1-0.1-0.3-0.3-0.4-0.5
			c-0.4-0.6-0.7-1.2-0.8-1.4v0c-0.1-0.3-0.3-1.1-0.3-1.9c0.1-1.3,0.5-2.2,0.6-2.4c0.3-0.6,0.7-1.1,1.2-1.5C7.5,11,8,10.7,8.5,10.5
			c0.6-0.2,1.2-0.4,1.8-0.4v2.2c0,0-1.1-0.4-2,0.3c-0.6,0.5-1,1-1.1,1.8c0,0.6,0.2,1.5,1,2.1c0.1,0.1,0.2,0.1,0.3,0.2
			C8.6,17,8.8,17.2,9,17.3c0.8,0.5,1.5,0.6,2.4,0.2c0.6-0.2,1-0.8,1.2-1.4c0.1-0.4,0.1-0.7,0.1-1.1v-11h2.1C15,4.6,15.2,5.3,15.8,6
			c0.3,0.3,0.5,0.5,0.8,0.7c0.1,0.1,0.6,0.6,1.2,0.9C18.1,7.8,18.5,7.9,18.8,8L18.8,8z"/>
		<path class="st3" d="M4.7,16.5l0.1,0.1C4.7,16.6,4.7,16.6,4.7,16.5z M8.5,10.5c0.6-0.2,1.2-0.4,1.8-0.4V9.5
			c-0.5-0.1-1.1-0.1-1.6,0C8.4,9.6,8,9.7,7.7,9.8c-0.5,0.2-1,0.5-1.5,0.9c-0.5,0.4-0.9,0.9-1.2,1.5c-0.1,0.2-0.6,1-0.6,2.4
			c0,0.8,0.2,1.6,0.3,1.9v0c0.1,0.2,0.3,0.9,0.8,1.4c0.4,0.4,0.8,0.8,1.2,1.2c-0.1-0.1-0.3-0.3-0.4-0.5c-0.4-0.6-0.7-1.2-0.8-1.4v0
			c-0.1-0.3-0.3-1.1-0.3-1.9c0.1-1.4,0.5-2.2,0.6-2.4c0.3-0.6,0.7-1.1,1.2-1.5C7.5,11,8,10.7,8.5,10.5L8.5,10.5z M14.8,3.4H12v11
			c0,0.4,0,0.8-0.1,1.1c-0.2,0.6-0.7,1.1-1.2,1.4c-0.8,0.3-1.4,0.3-2.1-0.1C8.7,17,8.8,17.2,9,17.3c0.8,0.5,1.5,0.6,2.4,0.2
			c0.6-0.2,1-0.8,1.2-1.4c0.1-0.4,0.1-0.7,0.1-1.1v-11h2.1C14.8,3.7,14.8,3.4,14.8,3.4z M17,6.9c-0.1-0.1-0.2-0.1-0.3-0.2
			c0.1,0.1,0.6,0.6,1.2,0.9c0.3,0.2,0.6,0.3,1,0.4V7.4C18.4,7.4,17.7,7.3,17,6.9z"/>
	</g>
	<g class="st4">
		<path class="st5" d="M14,18.8c0,0.1,0,0.1,0,0.2c0,0,0,0,0,0c0.1,0.3,0.3,0.4,0.6,0.4V20c-0.3,0-0.5,0-0.8-0.2
			c-0.4-0.2-0.6-0.6-0.6-1c0-0.4,0.2-0.8,0.6-1.1c0.3-0.1,0.5-0.1,0.8-0.1v0.6C14.3,18.2,14,18.4,14,18.8L14,18.8z"/>
		<path class="st6" d="M15.2,18.8c0,0.1,0,0.1,0,0.2c0,0,0,0,0,0c-0.1,0.3-0.3,0.4-0.6,0.4V20c0.3,0,0.5,0,0.8-0.2
			c0.4-0.2,0.6-0.6,0.6-1c0-0.4-0.2-0.8-0.6-1.1c-0.3-0.1-0.5-0.1-0.8-0.1v0.6C15,18.2,15.2,18.4,15.2,18.8L15.2,18.8L15.2,18.8z"/>
		<path class="st7" d="M5.4,17h2.2l-0.2,0.6H6.8V20H6.1v-2.3H5.4V17z M11.2,17v0.6H12V20h0.7v-2.3h0.6l0.2-0.6H11.2z M8.1,17.7
			c0.2,0,0.3-0.2,0.3-0.3c0-0.2-0.2-0.3-0.3-0.3c-0.2,0-0.3,0.2-0.3,0.3C7.7,17.6,7.9,17.7,8.1,17.7z M7.7,20h0.7v-2H7.7V20z
			 M10.9,17.7h-0.8l-0.7,0.7V17H8.7l0,2.9h0.7v-0.8L9.6,19l0.7,1h0.7l-1-1.4L10.9,17.7z M17.6,18.6l0.9-0.9h-0.8L17,18.4V17h-0.7
			l0,2.9H17v-0.8l0.2-0.2l0.7,1h0.7L17.6,18.6z M15.8,18.8c0,0.7-0.5,1.2-1.2,1.2c-0.7,0-1.2-0.5-1.2-1.2s0.5-1.2,1.2-1.2
			C15.3,17.6,15.8,18.1,15.8,18.8z M15.2,18.8c0-0.3-0.3-0.6-0.6-0.6c-0.3,0-0.6,0.3-0.6,0.6c0,0.3,0.3,0.6,0.6,0.6
			C15,19.4,15.2,19.1,15.2,18.8z"/>
	</g>
</g>
</svg>
