<svg width="24" height="16" viewBox="0 0 24 16" fill="none" xmlns="http://www.w3.org/2000/svg">
<path d="M23.5861 15.8621H0.413812C0.185297 15.8621 0 15.6768 0 15.4483V0.551751C0 0.323236 0.185297 0.137939 0.413812 0.137939H23.5862C23.8147 0.137939 24 0.323236 24 0.551751V15.4483C24 15.6768 23.8147 15.8621 23.5861 15.8621Z" fill="#F5F5F5"/>
<path d="M24 1.34755H0V0.551751C0 0.323236 0.185297 0.137939 0.413812 0.137939H23.5862C23.8147 0.137939 24 0.323236 24 0.551751L24 1.34755Z" fill="#FF4B55"/>
<path d="M24 4.97607H0V6.18563H24V4.97607Z" fill="#FF4B55"/>
<path d="M24 2.55688H0V3.76644H24V2.55688Z" fill="#FF4B55"/>
<path d="M24 8.60487H0.413812C0.185297 8.60487 0 8.41957 0 8.19106V7.39526H24V8.60487Z" fill="#FF4B55"/>
<path d="M24 12.2339H0V13.4434H24V12.2339Z" fill="#FF4B55"/>
<path d="M23.5861 15.8621H0.413812C0.185297 15.8621 0 15.6769 0 15.4483V14.6526H24V15.4484C24 15.6769 23.8147 15.8621 23.5861 15.8621Z" fill="#FF4B55"/>
<path d="M24 9.81445H0V11.024H24V9.81445Z" fill="#FF4B55"/>
<path d="M10.7586 0.137939H0.413812C0.185297 0.137939 0 0.323189 0 0.551704V8.1909C0 8.41942 0.185297 8.60471 0.413812 8.60471H10.7586C10.9872 8.60471 11.1724 8.41942 11.1724 8.1909V0.551704C11.1724 0.323189 10.9871 0.137939 10.7586 0.137939Z" fill="#41479B"/>
<path d="M1.16186 1.08796L1.25345 1.36264L1.543 1.36485C1.5805 1.36517 1.59601 1.41299 1.56587 1.43525L1.33295 1.60728L1.42033 1.88333C1.43167 1.91905 1.39094 1.94867 1.36042 1.92683L1.12487 1.7585L0.889328 1.92688C0.858813 1.94867 0.818172 1.91909 0.829422 1.88338L0.916797 1.60733L0.683876 1.4353C0.653736 1.41299 0.669251 1.36522 0.706751 1.36489L0.996297 1.36269L1.08789 1.088C1.0997 1.05238 1.14995 1.05238 1.16186 1.08796Z" fill="#F5F5F5"/>
<path d="M1.16186 2.52469L1.25345 2.79938L1.543 2.80158C1.5805 2.80191 1.59601 2.84972 1.56587 2.87198L1.33295 3.04401L1.42033 3.32006C1.43167 3.35578 1.39094 3.3854 1.36042 3.36356L1.12487 3.19523L0.889328 3.36361C0.858813 3.3854 0.818172 3.35583 0.829422 3.32011L0.916797 3.04406L0.683876 2.87203C0.653736 2.84972 0.669251 2.80195 0.706751 2.80163L0.996297 2.79942L1.08789 2.52474C1.0997 2.48916 1.14995 2.48916 1.16186 2.52469Z" fill="#F5F5F5"/>
<path d="M1.16186 3.96146L1.25345 4.23615L1.543 4.23835C1.5805 4.23868 1.59601 4.28649 1.56587 4.30876L1.33295 4.48079L1.42033 4.75684C1.43167 4.79256 1.39094 4.82218 1.36042 4.80034L1.12487 4.63201L0.889328 4.80038C0.858813 4.82218 0.818172 4.7926 0.829422 4.75688L0.916797 4.48084L0.683876 4.3088C0.653736 4.28649 0.669251 4.23872 0.706751 4.2384L0.996297 4.23619L1.08789 3.9615C1.0997 3.92593 1.14995 3.92593 1.16186 3.96146Z" fill="#F5F5F5"/>
<path d="M1.16186 5.3985L1.25345 5.67319L1.543 5.67539C1.5805 5.67572 1.59601 5.72354 1.56587 5.7458L1.33295 5.91783L1.42033 6.19388C1.43167 6.2296 1.39094 6.25922 1.36042 6.23738L1.12487 6.06905L0.889328 6.23743C0.858813 6.25922 0.818172 6.22964 0.829422 6.19393L0.916797 5.91788L0.683876 5.74585C0.653736 5.72353 0.669251 5.67577 0.706751 5.67544L0.996297 5.67324L1.08789 5.39855C1.0997 5.36293 1.14995 5.36293 1.16186 5.3985Z" fill="#F5F5F5"/>
<path d="M1.16186 6.83531L1.25345 7.11L1.543 7.1122C1.5805 7.11253 1.59601 7.16034 1.56587 7.18261L1.33295 7.35464L1.42033 7.63069C1.43167 7.66641 1.39094 7.69603 1.36042 7.67419L1.12487 7.50586L0.889328 7.67424C0.858813 7.69603 0.818172 7.66645 0.829422 7.63074L0.916797 7.35469L0.683876 7.18265C0.653736 7.16034 0.669251 7.11257 0.706751 7.11225L0.996297 7.11004L1.08789 6.83535C1.0997 6.79968 1.14995 6.79968 1.16186 6.83531Z" fill="#F5F5F5"/>
<path d="M2.27709 1.79227L2.36869 2.06696L2.65823 2.06916C2.69573 2.06949 2.71125 2.1173 2.68111 2.13957L2.44819 2.3116L2.53556 2.58765C2.5469 2.62337 2.50617 2.65299 2.47565 2.63115L2.24011 2.46277L2.00456 2.63115C1.97405 2.65294 1.93341 2.62337 1.94466 2.58765L2.03203 2.3116L1.79911 2.13957C1.76897 2.11726 1.78449 2.06949 1.82199 2.06916L2.11153 2.06696L2.20312 1.79227C2.21489 1.75674 2.26523 1.75674 2.27709 1.79227Z" fill="#F5F5F5"/>
<path d="M2.27709 3.22908L2.36869 3.50376L2.65823 3.50596C2.69573 3.50629 2.71125 3.5541 2.68111 3.57637L2.44819 3.7484L2.53556 4.02444C2.5469 4.06016 2.50617 4.08978 2.47565 4.06794L2.24011 3.89957L2.00456 4.06794C1.97405 4.08973 1.93341 4.0602 1.94466 4.02444L2.03203 3.7484L1.79911 3.57637C1.76897 3.55406 1.78449 3.50629 1.82199 3.50596L2.11153 3.50376L2.20312 3.22908C2.21489 3.1935 2.26523 3.1935 2.27709 3.22908Z" fill="#F5F5F5"/>
<path d="M2.27709 4.66609L2.36869 4.94077L2.65823 4.94298C2.69573 4.94331 2.71125 4.99112 2.68111 5.01338L2.44819 5.18542L2.53556 5.46146C2.5469 5.49718 2.50617 5.52681 2.47565 5.50496L2.24011 5.33659L2.00456 5.50496C1.97405 5.52676 1.93341 5.49718 1.94466 5.46146L2.03203 5.18542L1.79911 5.01338C1.76897 4.99107 1.78449 4.94331 1.82199 4.94298L2.11153 4.94077L2.20312 4.66609C2.21489 4.63051 2.26523 4.63051 2.27709 4.66609Z" fill="#F5F5F5"/>
<path d="M2.27709 6.10306L2.36869 6.37775L2.65823 6.37995C2.69573 6.38028 2.71125 6.42809 2.68111 6.45036L2.44819 6.62239L2.53556 6.89844C2.5469 6.93416 2.50617 6.96378 2.47565 6.94194L2.24011 6.77356L2.00456 6.94194C1.97405 6.96373 1.93341 6.93416 1.94466 6.89844L2.03203 6.62239L1.79911 6.45036C1.76897 6.42805 1.78449 6.38028 1.82199 6.37995L2.11153 6.37775L2.20312 6.10306C2.21489 6.06753 2.26523 6.06753 2.27709 6.10306Z" fill="#F5F5F5"/>
<path d="M3.39233 1.08772L3.48393 1.3624L3.77347 1.36461C3.81097 1.36493 3.82649 1.41275 3.79635 1.43501L3.56343 1.60704L3.6508 1.88309C3.66214 1.9188 3.62141 1.94843 3.59089 1.92659L3.35535 1.75821L3.1198 1.92659C3.08928 1.94838 3.04864 1.9188 3.05989 1.88309L3.14727 1.60704L2.91435 1.43501C2.8842 1.4127 2.89972 1.36493 2.93722 1.36461L3.22677 1.3624L3.31836 1.08772C3.33017 1.05214 3.38047 1.05214 3.39233 1.08772Z" fill="#F5F5F5"/>
<path d="M3.39233 2.5247L3.48393 2.79938L3.77347 2.80159C3.81097 2.80191 3.82649 2.84973 3.79635 2.87199L3.56343 3.04402L3.6508 3.32007C3.66214 3.35579 3.62141 3.38541 3.59089 3.36357L3.35535 3.19519L3.1198 3.36357C3.08928 3.38536 3.04864 3.35579 3.05989 3.32007L3.14727 3.04402L2.91435 2.87199C2.8842 2.84968 2.89972 2.80191 2.93722 2.80159L3.22677 2.79938L3.31836 2.5247C3.33017 2.48916 3.38047 2.48916 3.39233 2.5247Z" fill="#F5F5F5"/>
<path d="M3.39233 3.96146L3.48393 4.23615L3.77347 4.23836C3.81097 4.23869 3.82649 4.2865 3.79635 4.30877L3.56343 4.4808L3.6508 4.75685C3.66214 4.79257 3.62141 4.82219 3.59089 4.80035L3.35535 4.63197L3.1198 4.80035C3.08928 4.82215 3.04864 4.79257 3.05989 4.75685L3.14727 4.4808L2.91435 4.30877C2.8842 4.28645 2.89972 4.23869 2.93722 4.23836L3.22677 4.23615L3.31836 3.96146C3.33017 3.92593 3.38047 3.92593 3.39233 3.96146Z" fill="#F5F5F5"/>
<path d="M3.39233 5.39851L3.48393 5.6732L3.77347 5.6754C3.81097 5.67573 3.82649 5.72354 3.79635 5.74581L3.56343 5.91784L3.6508 6.19388C3.66214 6.2296 3.62141 6.25923 3.59089 6.23738L3.35535 6.06901L3.1198 6.23738C3.08928 6.25918 3.04864 6.2296 3.05989 6.19388L3.14727 5.91784L2.91435 5.74581C2.8842 5.72349 2.89972 5.67573 2.93722 5.6754L3.22677 5.6732L3.31836 5.39851C3.33017 5.36293 3.38047 5.36293 3.39233 5.39851Z" fill="#F5F5F5"/>
<path d="M3.39233 6.83531L3.48393 7.11L3.77347 7.1122C3.81097 7.11253 3.82649 7.16035 3.79635 7.18261L3.56343 7.35464L3.6508 7.63069C3.66214 7.66641 3.62141 7.69603 3.59089 7.67419L3.35535 7.50582L3.1198 7.67419C3.08928 7.69599 3.04864 7.66641 3.05989 7.63069L3.14727 7.35464L2.91435 7.18261C2.8842 7.1603 2.89972 7.11253 2.93722 7.1122L3.22677 7.11L3.31836 6.83531C3.33017 6.79969 3.38047 6.79969 3.39233 6.83531Z" fill="#F5F5F5"/>
<path d="M4.50756 1.79227L4.59916 2.06696L4.8887 2.06916C4.9262 2.06949 4.94172 2.1173 4.91158 2.13957L4.67866 2.3116L4.76603 2.58765C4.77737 2.62337 4.73664 2.65299 4.70612 2.63115L4.47058 2.46277L4.23503 2.63115C4.20452 2.65294 4.16388 2.62337 4.17513 2.58765L4.2625 2.3116L4.02958 2.13957C3.99944 2.11726 4.01495 2.06949 4.05245 2.06916L4.342 2.06696L4.43359 1.79227C4.44536 1.75674 4.4957 1.75674 4.50756 1.79227Z" fill="#F5F5F5"/>
<path d="M4.50756 3.22908L4.59916 3.50376L4.8887 3.50596C4.9262 3.50629 4.94172 3.5541 4.91158 3.57637L4.67866 3.7484L4.76603 4.02444C4.77737 4.06016 4.73664 4.08978 4.70612 4.06794L4.47058 3.89957L4.23503 4.06794C4.20452 4.08973 4.16388 4.0602 4.17513 4.02444L4.2625 3.7484L4.02958 3.57637C3.99944 3.55406 4.01495 3.50629 4.05245 3.50596L4.342 3.50376L4.43359 3.22908C4.44536 3.1935 4.4957 3.1935 4.50756 3.22908Z" fill="#F5F5F5"/>
<path d="M4.50756 4.66609L4.59916 4.94077L4.8887 4.94298C4.9262 4.94331 4.94172 4.99112 4.91158 5.01338L4.67866 5.18542L4.76603 5.46146C4.77737 5.49718 4.73664 5.52681 4.70612 5.50496L4.47058 5.33659L4.23503 5.50496C4.20452 5.52676 4.16388 5.49718 4.17513 5.46146L4.2625 5.18542L4.02958 5.01338C3.99944 4.99107 4.01495 4.94331 4.05245 4.94298L4.342 4.94077L4.43359 4.66609C4.44536 4.63051 4.4957 4.63051 4.50756 4.66609Z" fill="#F5F5F5"/>
<path d="M4.50756 6.10306L4.59916 6.37775L4.8887 6.37995C4.9262 6.38028 4.94172 6.42809 4.91158 6.45036L4.67866 6.62239L4.76603 6.89844C4.77737 6.93416 4.73664 6.96378 4.70612 6.94194L4.47058 6.77356L4.23503 6.94194C4.20452 6.96373 4.16388 6.93416 4.17513 6.89844L4.2625 6.62239L4.02958 6.45036C3.99944 6.42805 4.01495 6.38028 4.05245 6.37995L4.342 6.37775L4.43359 6.10306C4.44536 6.06753 4.4957 6.06753 4.50756 6.10306Z" fill="#F5F5F5"/>
<path d="M5.62284 1.08772L5.71444 1.3624L6.00399 1.36461C6.04149 1.36493 6.057 1.41275 6.02686 1.43501L5.79394 1.60704L5.88131 1.88309C5.89266 1.9188 5.85192 1.94843 5.82141 1.92659L5.58581 1.75821L5.35027 1.92659C5.31975 1.94838 5.27911 1.9188 5.29036 1.88309L5.37774 1.60704L5.14481 1.43501C5.11467 1.4127 5.13019 1.36493 5.16769 1.36461L5.45724 1.3624L5.54883 1.08772C5.56069 1.05214 5.61099 1.05214 5.62284 1.08772Z" fill="#F5F5F5"/>
<path d="M5.62284 2.5247L5.71444 2.79938L6.00399 2.80159C6.04149 2.80191 6.057 2.84973 6.02686 2.87199L5.79394 3.04402L5.88131 3.32007C5.89266 3.35579 5.85192 3.38541 5.82141 3.36357L5.58581 3.19519L5.35027 3.36357C5.31975 3.38536 5.27911 3.35579 5.29036 3.32007L5.37774 3.04402L5.14481 2.87199C5.11467 2.84968 5.13019 2.80191 5.16769 2.80159L5.45724 2.79938L5.54883 2.5247C5.56069 2.48916 5.61099 2.48916 5.62284 2.5247Z" fill="#F5F5F5"/>
<path d="M5.62284 3.96146L5.71444 4.23615L6.00399 4.23836C6.04149 4.23869 6.057 4.2865 6.02686 4.30877L5.79394 4.4808L5.88131 4.75685C5.89266 4.79257 5.85192 4.82219 5.82141 4.80035L5.58581 4.63197L5.35027 4.80035C5.31975 4.82215 5.27911 4.79257 5.29036 4.75685L5.37774 4.4808L5.14481 4.30877C5.11467 4.28645 5.13019 4.23869 5.16769 4.23836L5.45724 4.23615L5.54883 3.96146C5.56069 3.92593 5.61099 3.92593 5.62284 3.96146Z" fill="#F5F5F5"/>
<path d="M5.62284 5.39851L5.71444 5.6732L6.00399 5.6754C6.04149 5.67573 6.057 5.72354 6.02686 5.74581L5.79394 5.91784L5.88131 6.19388C5.89266 6.2296 5.85192 6.25923 5.82141 6.23738L5.58581 6.06901L5.35027 6.23738C5.31975 6.25918 5.27911 6.2296 5.29036 6.19388L5.37774 5.91784L5.14481 5.74581C5.11467 5.72349 5.13019 5.67573 5.16769 5.6754L5.45724 5.6732L5.54883 5.39851C5.56069 5.36293 5.61099 5.36293 5.62284 5.39851Z" fill="#F5F5F5"/>
<path d="M5.62284 6.83531L5.71444 7.11L6.00399 7.1122C6.04149 7.11253 6.057 7.16035 6.02686 7.18261L5.79394 7.35464L5.88131 7.63069C5.89266 7.66641 5.85192 7.69603 5.82141 7.67419L5.58581 7.50582L5.35027 7.67419C5.31975 7.69599 5.27911 7.66641 5.29036 7.63069L5.37774 7.35464L5.14481 7.18261C5.11467 7.1603 5.13019 7.11253 5.16769 7.1122L5.45724 7.11L5.54883 6.83531C5.56069 6.79969 5.61099 6.79969 5.62284 6.83531Z" fill="#F5F5F5"/>
<path d="M6.73804 1.79227L6.82963 2.06696L7.11918 2.06916C7.15668 2.06949 7.17219 2.1173 7.14205 2.13957L6.90913 2.3116L6.99651 2.58765C7.00785 2.62337 6.96712 2.65299 6.9366 2.63115L6.70105 2.46277L6.4655 2.63115C6.43499 2.65294 6.39435 2.62337 6.4056 2.58765L6.49297 2.3116L6.26005 2.13957C6.22991 2.11726 6.24542 2.06949 6.28292 2.06916L6.57247 2.06696L6.66407 1.79227C6.67593 1.75674 6.72618 1.75674 6.73804 1.79227Z" fill="#F5F5F5"/>
<path d="M6.73804 3.22908L6.82963 3.50376L7.11918 3.50596C7.15668 3.50629 7.17219 3.5541 7.14205 3.57637L6.90913 3.7484L6.99651 4.02444C7.00785 4.06016 6.96712 4.08978 6.9366 4.06794L6.70105 3.89957L6.4655 4.06794C6.43499 4.08973 6.39435 4.0602 6.4056 4.02444L6.49297 3.7484L6.26005 3.57637C6.22991 3.55406 6.24542 3.50629 6.28292 3.50596L6.57247 3.50376L6.66407 3.22908C6.67593 3.1935 6.72618 3.1935 6.73804 3.22908Z" fill="#F5F5F5"/>
<path d="M6.73804 4.66609L6.82963 4.94077L7.11918 4.94298C7.15668 4.94331 7.17219 4.99112 7.14205 5.01338L6.90913 5.18542L6.99651 5.46146C7.00785 5.49718 6.96712 5.52681 6.9366 5.50496L6.70105 5.33659L6.4655 5.50496C6.43499 5.52676 6.39435 5.49718 6.4056 5.46146L6.49297 5.18542L6.26005 5.01338C6.22991 4.99107 6.24542 4.94331 6.28292 4.94298L6.57247 4.94077L6.66407 4.66609C6.67593 4.63051 6.72618 4.63051 6.73804 4.66609Z" fill="#F5F5F5"/>
<path d="M6.73804 6.10306L6.82963 6.37775L7.11918 6.37995C7.15668 6.38028 7.17219 6.42809 7.14205 6.45036L6.90913 6.62239L6.99651 6.89844C7.00785 6.93416 6.96712 6.96378 6.9366 6.94194L6.70105 6.77356L6.4655 6.94194C6.43499 6.96373 6.39435 6.93416 6.4056 6.89844L6.49297 6.62239L6.26005 6.45036C6.22991 6.42805 6.24542 6.38028 6.28292 6.37995L6.57247 6.37775L6.66407 6.10306C6.67593 6.06753 6.72618 6.06753 6.73804 6.10306Z" fill="#F5F5F5"/>
<path d="M7.85327 1.08772L7.94486 1.3624L8.23441 1.36461C8.27191 1.36493 8.28743 1.41275 8.25729 1.43501L8.02436 1.60704L8.11174 1.88309C8.12308 1.9188 8.08235 1.94843 8.05183 1.92659L7.81628 1.75821L7.58074 1.92659C7.55022 1.94838 7.50958 1.9188 7.52083 1.88309L7.60821 1.60704L7.37528 1.43501C7.34514 1.4127 7.36066 1.36493 7.39816 1.36461L7.68771 1.3624L7.7793 1.08772C7.79107 1.05214 7.84141 1.05214 7.85327 1.08772Z" fill="#F5F5F5"/>
<path d="M7.85327 2.5247L7.94486 2.79938L8.23441 2.80159C8.27191 2.80191 8.28743 2.84973 8.25729 2.87199L8.02436 3.04402L8.11174 3.32007C8.12308 3.35579 8.08235 3.38541 8.05183 3.36357L7.81628 3.19519L7.58074 3.36357C7.55022 3.38536 7.50958 3.35579 7.52083 3.32007L7.60821 3.04402L7.37528 2.87199C7.34514 2.84968 7.36066 2.80191 7.39816 2.80159L7.68771 2.79938L7.7793 2.5247C7.79107 2.48916 7.84141 2.48916 7.85327 2.5247Z" fill="#F5F5F5"/>
<path d="M7.85327 3.96146L7.94486 4.23615L8.23441 4.23836C8.27191 4.23869 8.28743 4.2865 8.25729 4.30877L8.02436 4.4808L8.11174 4.75685C8.12308 4.79257 8.08235 4.82219 8.05183 4.80035L7.81628 4.63197L7.58074 4.80035C7.55022 4.82215 7.50958 4.79257 7.52083 4.75685L7.60821 4.4808L7.37528 4.30877C7.34514 4.28645 7.36066 4.23869 7.39816 4.23836L7.68771 4.23615L7.7793 3.96146C7.79107 3.92593 7.84141 3.92593 7.85327 3.96146Z" fill="#F5F5F5"/>
<path d="M7.85327 5.39851L7.94486 5.6732L8.23441 5.6754C8.27191 5.67573 8.28743 5.72354 8.25729 5.74581L8.02436 5.91784L8.11174 6.19388C8.12308 6.2296 8.08235 6.25923 8.05183 6.23738L7.81628 6.06901L7.58074 6.23738C7.55022 6.25918 7.50958 6.2296 7.52083 6.19388L7.60821 5.91784L7.37528 5.74581C7.34514 5.72349 7.36066 5.67573 7.39816 5.6754L7.68771 5.6732L7.7793 5.39851C7.79107 5.36293 7.84141 5.36293 7.85327 5.39851Z" fill="#F5F5F5"/>
<path d="M7.85327 6.83531L7.94486 7.11L8.23441 7.1122C8.27191 7.11253 8.28743 7.16035 8.25729 7.18261L8.02436 7.35464L8.11174 7.63069C8.12308 7.66641 8.08235 7.69603 8.05183 7.67419L7.81628 7.50582L7.58074 7.67419C7.55022 7.69599 7.50958 7.66641 7.52083 7.63069L7.60821 7.35464L7.37528 7.18261C7.34514 7.1603 7.36066 7.11253 7.39816 7.1122L7.68771 7.11L7.7793 6.83531C7.79107 6.79969 7.84141 6.79969 7.85327 6.83531Z" fill="#F5F5F5"/>
<path d="M8.96947 1.79227L9.06107 2.06696L9.35061 2.06916C9.38811 2.06949 9.40363 2.1173 9.37349 2.13957L9.14057 2.3116L9.22794 2.58765C9.23929 2.62337 9.19855 2.65299 9.16804 2.63115L8.93249 2.46277L8.69695 2.63115C8.66643 2.65294 8.62579 2.62337 8.63704 2.58765L8.72441 2.3116L8.49149 2.13957C8.46135 2.11726 8.47687 2.06949 8.51437 2.06916L8.80391 2.06696L8.89551 1.79227C8.90732 1.75674 8.95766 1.75674 8.96947 1.79227Z" fill="#F5F5F5"/>
<path d="M8.96947 3.22908L9.06107 3.50376L9.35061 3.50596C9.38811 3.50629 9.40363 3.5541 9.37349 3.57637L9.14057 3.7484L9.22794 4.02444C9.23929 4.06016 9.19855 4.08978 9.16804 4.06794L8.93249 3.89957L8.69695 4.06794C8.66643 4.08973 8.62579 4.0602 8.63704 4.02444L8.72441 3.7484L8.49149 3.57637C8.46135 3.55406 8.47687 3.50629 8.51437 3.50596L8.80391 3.50376L8.89551 3.22908C8.90732 3.1935 8.95766 3.1935 8.96947 3.22908Z" fill="#F5F5F5"/>
<path d="M8.96947 4.66609L9.06107 4.94077L9.35061 4.94298C9.38811 4.94331 9.40363 4.99112 9.37349 5.01338L9.14057 5.18542L9.22794 5.46146C9.23929 5.49718 9.19855 5.52681 9.16804 5.50496L8.93249 5.33659L8.69695 5.50496C8.66643 5.52676 8.62579 5.49718 8.63704 5.46146L8.72441 5.18542L8.49149 5.01338C8.46135 4.99107 8.47687 4.94331 8.51437 4.94298L8.80391 4.94077L8.89551 4.66609C8.90732 4.63051 8.95766 4.63051 8.96947 4.66609Z" fill="#F5F5F5"/>
<path d="M8.96947 6.10306L9.06107 6.37775L9.35061 6.37995C9.38811 6.38028 9.40363 6.42809 9.37349 6.45036L9.14057 6.62239L9.22794 6.89844C9.23929 6.93416 9.19855 6.96378 9.16804 6.94194L8.93249 6.77356L8.69695 6.94194C8.66643 6.96373 8.62579 6.93416 8.63704 6.89844L8.72441 6.62239L8.49149 6.45036C8.46135 6.42805 8.47687 6.38028 8.51437 6.37995L8.80391 6.37775L8.89551 6.10306C8.90732 6.06753 8.95766 6.06753 8.96947 6.10306Z" fill="#F5F5F5"/>
<path d="M10.0847 1.08772L10.1763 1.3624L10.4659 1.36461C10.5034 1.36493 10.5189 1.41275 10.4887 1.43501L10.2558 1.60704L10.3432 1.88309C10.3545 1.9188 10.3138 1.94843 10.2833 1.92659L10.0477 1.75821L9.81218 1.92659C9.78167 1.94838 9.74102 1.9188 9.75227 1.88309L9.83965 1.60704L9.60673 1.43501C9.57659 1.4127 9.5921 1.36493 9.6296 1.36461L9.91915 1.3624L10.0107 1.08772C10.0226 1.05214 10.0728 1.05214 10.0847 1.08772Z" fill="#F5F5F5"/>
<path d="M10.0847 2.5247L10.1763 2.79938L10.4659 2.80159C10.5034 2.80191 10.5189 2.84973 10.4887 2.87199L10.2558 3.04402L10.3432 3.32007C10.3545 3.35579 10.3138 3.38541 10.2833 3.36357L10.0477 3.19519L9.81218 3.36357C9.78167 3.38536 9.74102 3.35579 9.75227 3.32007L9.83965 3.04402L9.60673 2.87199C9.57659 2.84968 9.5921 2.80191 9.6296 2.80159L9.91915 2.79938L10.0107 2.5247C10.0226 2.48916 10.0728 2.48916 10.0847 2.5247Z" fill="#F5F5F5"/>
<path d="M10.0847 3.96146L10.1763 4.23615L10.4659 4.23836C10.5034 4.23869 10.5189 4.2865 10.4887 4.30877L10.2558 4.4808L10.3432 4.75685C10.3545 4.79257 10.3138 4.82219 10.2833 4.80035L10.0477 4.63197L9.81218 4.80035C9.78167 4.82215 9.74102 4.79257 9.75227 4.75685L9.83965 4.4808L9.60673 4.30877C9.57659 4.28645 9.5921 4.23869 9.6296 4.23836L9.91915 4.23615L10.0107 3.96146C10.0226 3.92593 10.0728 3.92593 10.0847 3.96146Z" fill="#F5F5F5"/>
<path d="M10.0847 5.39851L10.1763 5.6732L10.4659 5.6754C10.5034 5.67573 10.5189 5.72354 10.4887 5.74581L10.2558 5.91784L10.3432 6.19388C10.3545 6.2296 10.3138 6.25923 10.2833 6.23738L10.0477 6.06901L9.81218 6.23738C9.78167 6.25918 9.74102 6.2296 9.75227 6.19388L9.83965 5.91784L9.60673 5.74581C9.57659 5.72349 9.5921 5.67573 9.6296 5.6754L9.91915 5.6732L10.0107 5.39851C10.0226 5.36293 10.0728 5.36293 10.0847 5.39851Z" fill="#F5F5F5"/>
<path d="M10.0847 6.83531L10.1763 7.11L10.4659 7.1122C10.5034 7.11253 10.5189 7.16035 10.4887 7.18261L10.2558 7.35464L10.3432 7.63069C10.3545 7.66641 10.3138 7.69603 10.2833 7.67419L10.0477 7.50582L9.81218 7.67419C9.78167 7.69599 9.74102 7.66641 9.75227 7.63069L9.83965 7.35464L9.60673 7.18261C9.57659 7.1603 9.5921 7.11253 9.6296 7.1122L9.91915 7.11L10.0107 6.83531C10.0226 6.79969 10.0728 6.79969 10.0847 6.83531Z" fill="#F5F5F5"/>
</svg>
