<svg width="36" height="24" viewBox="0 0 36 24" fill="none" xmlns="http://www.w3.org/2000/svg">
<g clip-path="url(#clip0_646_2)">
<path d="M32 0H4C1.79086 0 0 1.79086 0 4V20C0 22.2091 1.79086 24 4 24H32C34.2091 24 36 22.2091 36 20V4C36 1.79086 34.2091 0 32 0Z" fill="#224DBA"/>
<path d="M10.925 15.673H8.874L7.336 9.673C7.263 9.397 7.108 9.153 6.88 9.038C6.28907 8.73244 5.65518 8.51834 5 8.403V8.172H8.304C8.76 8.172 9.102 8.519 9.159 8.922L9.957 13.25L12.007 8.172H14.001L10.925 15.672V15.673ZM15.141 15.673H13.204L14.8 8.172H16.737L15.142 15.672L15.141 15.673ZM19.242 10.251C19.299 9.847 19.641 9.616 20.04 9.616C20.6865 9.55675 21.3369 9.67645 21.92 9.962L22.262 8.347C21.7004 8.12121 21.1013 8.00348 20.496 8C18.616 8 17.248 9.039 17.248 10.481C17.248 11.578 18.217 12.154 18.901 12.501C19.641 12.847 19.926 13.078 19.869 13.424C19.869 13.943 19.299 14.174 18.73 14.174C18.0398 14.1653 17.3597 14.0077 16.736 13.712L16.394 15.328C17.0632 15.6003 17.7796 15.7376 18.502 15.732C20.61 15.789 21.92 14.751 21.92 13.193C21.92 11.231 19.242 11.116 19.242 10.251ZM28.699 15.673L27.16 8.172H25.508C25.3318 8.17461 25.1608 8.23139 25.018 8.33462C24.8752 8.43785 24.7677 8.58253 24.71 8.749L21.862 15.673H23.856L24.254 14.577H26.704L26.932 15.673H28.699ZM25.794 10.191L26.364 13.018H24.768L25.794 10.191Z" fill="white"/>
</g>
<defs>
<clipPath id="clip0_646_2">
<rect width="36" height="24" fill="white"/>
</clipPath>
</defs>
</svg>
