<svg width="36" height="24" viewBox="0 0 36 24" fill="none" xmlns="http://www.w3.org/2000/svg">
<path d="M32 0H4C1.79086 0 0 1.79086 0 4V20C0 22.2091 1.79086 24 4 24H32C34.2091 24 36 22.2091 36 20V4C36 1.79086 34.2091 0 32 0Z" fill="#D52D92"/>
<path d="M27 12.25C27 11.6533 26.7629 11.081 26.341 10.659C25.919 10.2371 25.3467 10 24.75 10H21C21 10.7956 20.6839 11.5587 20.1213 12.1213C19.5587 12.6839 18.7956 13 18 13C17.2044 13 16.4413 12.6839 15.8787 12.1213C15.3161 11.5587 15 10.7956 15 10H11.25C10.6533 10 10.081 10.2371 9.65901 10.659C9.23705 11.081 9 11.6533 9 12.25M27 12.25V18.25C27 18.8467 26.7629 19.419 26.341 19.841C25.919 20.2629 25.3467 20.5 24.75 20.5H11.25C10.6533 20.5 10.081 20.2629 9.65901 19.841C9.23705 19.419 9 18.8467 9 18.25V12.25M27 12.25V9.25M9 12.25V9.25M27 9.25C27 8.65326 26.7629 8.08097 26.341 7.65901C25.919 7.23705 25.3467 7 24.75 7H11.25C10.6533 7 10.081 7.23705 9.65901 7.65901C9.23705 8.08097 9 8.65326 9 9.25M27 9.25V6.25C27 5.65326 26.7629 5.08097 26.341 4.65901C25.919 4.23705 25.3467 4 24.75 4H11.25C10.6533 4 10.081 4.23705 9.65901 4.65901C9.23705 5.08097 9 5.65326 9 6.25V9.25" stroke="white" stroke-width="1.5" stroke-linecap="round" stroke-linejoin="round"/>
</svg>
