<svg xmlns="http://www.w3.org/2000/svg" viewBox="0 0 24 24" width="24" height="24">
<style type="text/css">
	.st0{fill-rule:evenodd;clip-rule:evenodd;fill:#FFFFFF;}
	.st1{fill-rule:evenodd;clip-rule:evenodd;fill:#416AB2;}
	.st2{opacity:0.12;fill-rule:evenodd;clip-rule:evenodd;fill:#051B32;enable-background:new    ;}
	.st3{fill:#416AB2;}
</style>
<path class="st0" d="M12,24L12,24C5.4,24,0,18.6,0,12v0C0,5.4,5.4,0,12,0h0c6.6,0,12,5.4,12,12v0C24,18.6,18.6,24,12,24z"/>
<g>
	<path class="st1" d="M11.1,1.8h1.8c2.5,0,4,0.4,5.3,1.1c1.3,0.7,2.3,1.7,3,3c0.7,1.3,1.1,2.8,1.1,5.3v1.8c0,2.5-0.4,4-1.1,5.3
		c-0.7,1.3-1.7,2.3-3,3c-1.3,0.7-2.8,1.1-5.3,1.1h-1.8c-2.5,0-4-0.4-5.3-1.1c-1.3-0.7-2.3-1.7-3-3c-0.7-1.3-1.1-2.8-1.1-5.3v-1.8
		c0-2.5,0.4-4,1.1-5.3c0.7-1.3,1.7-2.3,3-3C7.1,2.2,8.6,1.8,11.1,1.8z"/>
	<path class="st2" d="M22.2,12.6v0.3c0,2.5-0.4,4-1.1,5.3c-0.7,1.3-1.7,2.3-3,3c-1.3,0.7-2.8,1.1-5.3,1.1h-1.8c-2,0-3.4-0.2-4.5-0.7
		l-1.9-1.9L22.2,12.6z"/>
	<path class="st0" d="M4.9,19.7c1,0.1,2.2-0.2,3-0.6c3.7,2.1,9.6,2,13.1-0.3c0.1-0.2,0.3-0.4,0.4-0.6c0.7-1.3,1.1-2.8,1.1-5.3V11
		c0-2.5-0.4-4-1.1-5.3c-0.7-1.3-1.7-2.4-3.1-3.1c-1.3-0.7-2.8-1.1-5.3-1.1h-1.9C9,1.5,7.6,1.8,6.4,2.3C6.4,2.3,6.3,2.4,6.2,2.5
		C2.8,5.8,2.5,13,5.4,17c0,0,0,0,0,0c0.5,0.7,0,1.8-0.7,2.5C4.7,19.6,4.7,19.7,4.9,19.7z"/>
	<path class="st3" d="M10.1,8.7h-4v0.9h2.8L6.2,13C6.1,13.1,6,13.2,6,13.5v0.2h3.8c0.2,0,0.3-0.2,0.3-0.3v-0.5H7.2l2.6-3.2
		c0,0,0.1-0.1,0.1-0.2l0,0c0.1-0.2,0.2-0.4,0.2-0.6V8.7z"/>
	<path class="st3" d="M15.2,13.7h0.6v-5H15v4.7C15,13.6,15.1,13.7,15.2,13.7z"/>
	<path class="st3" d="M12.3,9.8c-1.1,0-2,0.9-2,2s0.9,2,2,2s2-0.9,2-2C14.3,10.7,13.4,9.8,12.3,9.8z M12.3,12.9
		c-0.6,0-1.1-0.5-1.1-1.1c0-0.6,0.5-1.1,1.1-1.1s1.1,0.5,1.1,1.1C13.5,12.4,12.9,12.9,12.3,12.9z"/>
	<path class="st3" d="M18.4,9.8c-1.1,0-2,0.9-2,2c0,1.1,0.9,2,2,2c1.1,0,2-0.9,2-2C20.3,10.7,19.4,9.8,18.4,9.8z M18.4,12.9
		c-0.6,0-1.2-0.5-1.2-1.2s0.5-1.2,1.2-1.2c0.6,0,1.2,0.5,1.2,1.2S19,12.9,18.4,12.9z"/>
	<path class="st3" d="M13.8,13.7h0.5V10h-0.8v3.4C13.5,13.6,13.6,13.7,13.8,13.7z"/>
</g>
</svg>
